<?xml version="1.0" encoding="UTF-8" standalone="no"?>
<svg
   data-name="Layer 1"
   width="588.14075"
   height="515.96997"
   viewBox="0 0 588.14077 515.96997"
   version="1.1"
   id="svg142"
   sodipodi:docname="book.svg"
   inkscape:version="1.1.2 (1:1.1+202202050950+0a00cf5339)"
   xmlns:inkscape="http://www.inkscape.org/namespaces/inkscape"
   xmlns:sodipodi="http://sodipodi.sourceforge.net/DTD/sodipodi-0.dtd"
   xmlns="http://www.w3.org/2000/svg"
   xmlns:svg="http://www.w3.org/2000/svg">
  <defs
     id="defs146" />
  <sodipodi:namedview
     id="namedview144"
     pagecolor="#ffffff"
     bordercolor="#666666"
     borderopacity="1.0"
     inkscape:pageshadow="2"
     inkscape:pageopacity="0.0"
     inkscape:pagecheckerboard="0"
     showgrid="false"
     inkscape:zoom="0.76406179"
     inkscape:cx="263.06773"
     inkscape:cy="276.81007"
     inkscape:window-width="1366"
     inkscape:window-height="705"
     inkscape:window-x="0"
     inkscape:window-y="27"
     inkscape:window-maximized="1"
     inkscape:current-layer="svg142"
     height="694.96997px" />
  <path
     d="m 528.50821,725.62719 a 10.1991,10.1991 0 0 0 7.02237,-6.65924 c 0.268,-0.8237 1.50625,-0.29968 1.24,0.51865 a 11.42892,11.42892 0 0 1 -7.75229,7.38412 0.6946,0.6946 0 0 1 -0.87679,-0.36674 0.67543,0.67543 0 0 1 0.36674,-0.87679 z"
     fill="#ffffff"
     id="path10" />
  <path
     d="m 395.97532,150.9551 c -7.571,-40.52007 4.34872,-86.618526 37.47864,-111.145336 a 189.92246,189.92246 0 0 0 39.59323,124.238116 c 10.63431,13.63029 23.88146,27.68319 23.47,44.96635 -0.25582,10.754 -6.07175,20.77238 -13.736,28.31989 -7.66485,7.5477 -17.10628,12.98925 -26.43483,18.34614 l -1.45212,2.25887 C 427.54838,227.09434 403.54629,191.47517 395.97532,150.9551 Z"
     fill="#f0f0f0"
     id="path26" />
  <path
     d="m 434.05763,40.429214 a 162.33255,162.33255 0 0 0 -10.71652,99.300076 c 1.533,7.14727 3.7101,14.26418 7.40239,20.61408 a 40.09421,40.09421 0 0 0 15.14673,14.6917 c 5.78156,3.34071 12.08233,6.08837 16.95113,10.77632 5.132,4.94135 7.41737,11.68538 7.22683,18.7316 -0.23313,8.62125 -3.55011,16.64458 -7.06651,24.378 -3.90429,8.58649 -8.09566,17.44331 -7.84245,27.09691 0.0307,1.16966 -1.78605,1.14888 -1.81668,-0.019 -0.44054,-16.79561 11.70217,-30.28435 14.40782,-46.4004 1.26251,-7.52 0.26641,-15.46612 -5.02054,-21.29522 -4.62321,-5.09729 -11.11819,-7.93626 -17.00138,-11.26821 -6.17744,-3.4986 -11.43648,-7.82109 -15.34548,-13.8135 -3.99869,-6.12991 -6.45863,-13.1767 -8.16761,-20.25343 a 157.49128,157.49128 0 0 1 -3.56967,-49.093513 165.21111,165.21111 0 0 1 13.85289,-54.378753 c 0.47608,-1.0646 2.032,-0.12431 1.559,0.93334 z"
     fill="#ffffff"
     id="path28" />
  <path
     d="m 420.46943,129.1052 a 24.355,24.355 0 0 1 -25.40911,-18.68088 c -0.26554,-1.13836 1.49094,-1.60448 1.75684,-0.4646 a 22.55223,22.55223 0 0 0 23.67129,17.3288 c 1.16575,-0.0876 1.14006,1.72956 -0.019,1.81668 z"
     fill="#ffffff"
     id="path30" />
  <path
     d="m 442.73566,173.72728 a 46.9424,46.9424 0 0 0 11.76612,-32.12319 c -0.0265,-1.16974 1.79017,-1.14931 1.81667,0.019 A 48.82722,48.82722 0 0 1 444.0068,175.0253 c -0.77848,0.87521 -2.04538,-0.42758 -1.27114,-1.298 z"
     fill="#ffffff"
     id="path32" />
  <path
     d="m 422.25708,76.219197 a 13.78612,13.78612 0 0 0 12.24672,-4.598003 c 0.767,-0.88464 2.03314,0.41915 1.27114,1.298 a 15.44848,15.44848 0 0 1 -13.53688,5.116603 0.9389,0.9389 0 0 1 -0.89883,-0.91784 0.913,0.913 0 0 1 0.91785,-0.89883 z"
     fill="#ffffff"
     id="path34" />
  <path
     d="m 568.93676,73.325974 c -0.46321,0.566003 -0.92643,1.132003 -1.38569,1.712883 a 181.55558,181.55558 0 0 0 -16.61657,24.31563 c -0.38711,0.654433 -0.76957,1.323473 -1.13707,1.987663 a 191.40035,191.40035 0 0 0 -22.33268,66.83541 185.8738,185.8738 0 0 0 -1.70413,28.19016 c 0.20468,13.01814 1.4624,27.11683 -2.528,39.08987 a 31.88566,31.88566 0 0 1 -1.436,3.676 l -64.03404,20.40184 c -0.1688,-0.0267 -0.33367,-0.0386 -0.50318,-0.065 l -2.51944,0.93148 c -0.0416,-0.48562 -0.0743,-0.99019 -0.11582,-1.47581 -0.0253,-0.2816 -0.0363,-0.56775 -0.0616,-0.84935 -0.0123,-0.18917 -0.024,-0.37866 -0.0459,-0.54866 -0.004,-0.063 -0.008,-0.12613 -0.008,-0.17455 -0.022,-0.17 -0.0243,-0.33024 -0.0416,-0.48562 -0.19045,-2.81988 -0.36667,-5.64438 -0.51289,-8.47835 -0.005,-0.0146 -0.005,-0.0146 0.005,-0.0338 -1.0991,-21.58414 -0.40591,-43.44967 3.584,-64.51486 0.12025,-0.63373 0.23513,-1.28186 0.38464,-1.92492 a 177.36546,177.36546 0 0 1 7.8437,-27.86114 156.7993,156.7993 0 0 1 6.3232,-14.55078 130.38868,130.38868 0 0 1 23.66929,-33.193 c 19.10321,-19.443353 44.21209,-32.560723 71.11666,-32.973766 0.68819,-0.01 1.36288,-0.0159 2.05581,-0.0113 z"
     fill="#f0f0f0"
     id="path36" />
  <path
     d="m 569.05174,74.184557 a 162.33255,162.33255 0 0 0 -68.342,72.833473 c -3.07914,6.62965 -5.62572,13.62288 -6.50071,20.91593 a 40.09422,40.09422 0 0 0 3.24841,20.84988 c 2.6049,6.14827 5.98143,12.13562 7.04643,18.81 1.12256,7.03519 -1.11305,13.79589 -5.50749,19.30718 -5.37673,6.74322 -12.85575,11.15235 -20.31946,15.20995 -8.287,4.50517 -16.966,9.05335 -22.576,16.91366 -0.67972,0.95238 -2.11776,-0.158 -1.43906,-1.10895 9.76037,-13.67559 27.5768,-17.13484 39.44008,-28.37362 5.53563,-5.24421 9.52439,-12.18844 8.81257,-20.02575 -0.62245,-6.8534 -4.09907,-13.03058 -6.79041,-19.233 -2.82594,-6.51269 -4.42255,-13.13025 -3.93582,-20.26835 0.4979,-7.30187 2.77643,-14.4094 5.67258,-21.08869 a 157.49128,157.49128 0 0 1 26.7075,-41.34761 165.21084,165.21084 0 0 1 43.80052,-35.078006 c 1.02108,-0.5634 1.69729,1.12415 0.68287,1.683873 z"
     fill="#ffffff"
     id="path38" />
  <path
     d="m 504.81326,136.80634 a 24.355,24.355 0 0 1 -9.04057,-30.21367 c 0.47335,-1.0688 2.15644,-0.38344 1.68246,0.68678 a 22.55224,22.55224 0 0 0 8.46706,28.08783 c 0.98355,0.6319 -0.131,2.06735 -1.109,1.43906 z"
     fill="#ffffff"
     id="path40" />
  <path
     d="m 495.72603,185.84038 a 46.9424,46.9424 0 0 0 28.735,-18.56455 c 0.68307,-0.95 2.12131,0.16015 1.43906,1.10895 a 48.82714,48.82714 0 0 1 -29.9406,19.25732 c -1.14851,0.23012 -1.37569,-1.57285 -0.23342,-1.80172 z"
     fill="#ffffff"
     id="path42" />
  <path
     d="m 538.08158,95.656117 a 13.78616,13.78616 0 0 0 12.54662,3.70216 c 1.145,-0.24456 1.371,1.558753 0.23342,1.801723 a 15.44851,15.44851 0 0 1 -13.889,-4.064823 0.93891,0.93891 0 0 1 -0.16505,-1.274 0.913,0.913 0 0 1 1.274,-0.165 z"
     fill="#ffffff"
     id="path44" />
  <path
     d="m 157.45114,102.54938 c -3.53831,-2.4976 -7.40948,-5.102063 -11.73917,-4.998003 -10.47929,0.252 -16.12921,15.614153 -26.59771,15.073913 -6.676,-0.34454 -11.10783,-7.12648 -17.324,-9.58557 -8.092793,-3.201343 -18.391463,3.05971 -19.274343,11.71767 l 1.03931,-0.95123 a 250.9319,250.9319 0 0 0 96.134723,4.4412 q -11.11928,-7.84897 -22.23881,-15.69798 z"
     fill="#f0f0f0"
     id="path46" />
  <circle
     cx="177.05865"
     cy="84.664986"
     r="36.362579"
     fill="#ff6582"
     id="circle48" />
  <path
     d="m 262.17447,77.718677 c -4.50927,-3.183 -9.44275,-6.502143 -14.96056,-6.369453 -13.355,0.32114 -20.55529,19.898883 -33.89649,19.210393 -8.50805,-0.43908 -14.156,-9.08208 -22.0779,-12.216 -10.31354,-4.07983 -23.43831,3.89934 -24.56347,14.93317 l 1.32453,-1.21223 a 319.79088,319.79088 0 0 0 122.5154,5.65993 q -14.17063,-10.00293 -28.34151,-20.00581 z"
     fill="#f0f0f0"
     id="path50" />
  <path
     d="m 589.25774,442.7465 -38.589,-206.6191 a 15.30459,15.30459 0 0 0 -14.5341,-12.38451 q -0.46807,-0.0104 -0.93615,0 l -26.28762,0.943 -2.82918,0.104 -13.11954,0.47152 -2.82917,0.0971 -8.43894,0.30511 -170.16586,6.10912 c -0.25656,0.0138 -0.52007,0.0138 -0.77663,0.007 l -38.13129,-0.79741 -14.11113,-0.29123 -0.45074,-0.007 -10.41522,-0.2219 -90.75513,-1.88618 -24.06172,-0.50618 -11.86449,-0.24268 -2.843,-0.0624 -13.52868,-0.27739 -2.83607,-0.0624 -13.840743,-0.28433 -2.83611,-0.0624 -15.20675,-0.319 -2.38538,-0.0485 -13.56334,-0.28428 -2.14265,-0.0416 h -0.312 a 15.263,15.263 0 0 0 -14.99179,12.7451 L 1.5753171,453.53618 A 15.18177,15.18177 0 0 0 16.560167,471.16297 H 216.98699 a 13.88889,13.88889 0 0 1 8.19626,2.70436 l 3.79994,2.8153 a 15.32026,15.32026 0 0 0 9.03527,2.9817 h 118.11759 a 15.09079,15.09079 0 0 0 10.74111,-4.4518 13.7781,13.7781 0 0 1 9.01449,-4.0149 L 575.12579,460.6992 a 15.18288,15.18288 0 0 0 14.13195,-17.95267 z"
     fill="#cccccc"
     id="path52" />
  <path
     d="m 557.6793,437.12975 -21.51,-213.10952 c -0.007,-0.0901 -0.0208,-0.18719 -0.0347,-0.27734 a 13.5326,13.5326 0 0 0 -4.70143,-8.744 l -46.27202,-38.54737 a 12.27574,12.27574 0 0 0 -7.13535,-2.85 c -21.17016,-1.35912 -128.79627,-6.39337 -168.52242,28.09055 a 10.936,10.936 0 0 1 -8.88968,2.55179 11.1356,11.1356 0 0 1 -7.71086,-5.17294 45.57012,45.57012 0 0 0 -13.00167,-13.25824 69.16331,69.16331 0 0 0 -7.28093,-4.41709 c -2.2259,-1.17189 -4.64594,-2.30911 -7.28094,-3.40469 -2.2675,-0.94309 -4.68754,-1.85147 -7.28093,-2.71825 -13.44547,-4.49336 -31.419,-7.84954 -55.43913,-8.97288 -9.96448,-0.47153 -20.79574,-0.53391 -32.18866,-0.19414 -10.40134,0.30511 -21.45449,0.9361 -32.84742,1.87915 l -0.16641,0.007 -77.087813,47.06257 a 13.431,13.431 0 0 0 -6.2477,9.95758 l -0.15952,1.41457 -24.4778,218.71234 a 13.718,13.718 0 0 0 3.15506,10.40828 12.58506,12.58506 0 0 0 9.56232,4.46564 H 232.10358 a 11.178,11.178 0 0 1 6.94117,2.46164 l 8.2933,6.643 a 12.5385,12.5385 0 0 0 7.60687,2.75981 l 83.51579,1.36606 h 0.20108 a 12.4541,12.4541 0 0 0 6.02584,-1.56714 l 16.10819,-8.94516 a 11.12148,11.12148 0 0 1 4.78463,-1.38685 l 180.01245,-9.50679 a 12.5116,12.5116 0 0 0 9.07691,-4.64594 13.56815,13.56815 0 0 0 3.00949,-10.06158 z"
     fill="#e6e6e6"
     id="path54" />
  <path
     d="m 494.84598,398.69756 -2.52,-33.17 -10.63,-139.86 -1.58,-20.69 a 21.92382,21.92382 0 0 0 -21.36,-20.31 c -38.95,-1 -109.48,0.76 -144.09,23.95 a 19.1879,19.1879 0 0 1 -25.11,-3.1 55.80676,55.80676 0 0 0 -16.94,-12.65 95.54807,95.54807 0 0 0 -14.56,-5.86 q -21.97494,-7.02 -55.46,-8.53 l -52.98,-0.31 h -0.09 a 14.44224,14.44224 0 0 0 -14.4,13.53 l -2.3,36.37 -10.05,159.5 a 21.97453,21.97453 0 0 0 21.63,23.36 c 88.93,1.32 127.78,20.09 144.72,35.59 a 21.96679,21.96679 0 0 0 26.9,2.18 c 30.75,-20.14 81.87,-25.74 122.56,-26.61 12.46,-0.26 23.94,-0.09 33.56,0.25 a 21.97354,21.97354 0 0 0 22.7,-23.64 z"
     fill="#ffffff"
     id="path56" />
  <path
     d="m 53.359947,444.96034 c -0.03319,0 -0.06777,-10e-4 -0.101,-0.004 a 1.41553,1.41553 0 0 1 -1.31267,-1.51185 l 15.30112,-216.05256 a 1.39921,1.39921 0 0 1 1.51185,-1.31267 1.41554,1.41554 0 0 1 1.31267,1.51186 l -15.30109,216.05259 a 1.41528,1.41528 0 0 1 -1.41088,1.31678 z"
     fill="#ffffff"
     id="path58" />
  <path
     d="m 71.773297,436.46187 c -0.03319,0 -0.06777,-10e-4 -0.101,-0.004 a 1.41553,1.41553 0 0 1 -1.31267,-1.51185 l 15.30112,-216.05256 a 1.39921,1.39921 0 0 1 1.51185,-1.31267 1.41554,1.41554 0 0 1 1.31267,1.51186 L 73.184177,435.1452 a 1.41528,1.41528 0 0 1 -1.41088,1.31682 z"
     fill="#ffffff"
     id="path60" />
  <path
     d="m 88.770237,432.21264 c -0.0332,0 -0.06778,-0.001 -0.101,-0.004 a 1.41553,1.41553 0 0 1 -1.31267,-1.51186 l 15.301123,-216.0527 a 1.39921,1.39921 0 0 1 1.51186,-1.31267 1.41553,1.41553 0 0 1 1.31267,1.51185 L 90.181117,430.89582 a 1.4153,1.4153 0 0 1 -1.41088,1.31682 z"
     fill="#ffffff"
     id="path62" />
  <path
     d="m 105.76719,423.71417 c -0.0332,0 -0.0678,-0.001 -0.101,-0.004 a 1.41554,1.41554 0 0 1 -1.31268,-1.51186 l 15.30112,-216.05255 a 1.39921,1.39921 0 0 1 1.51186,-1.31267 1.41554,1.41554 0 0 1 1.31267,1.51185 L 107.17807,422.3975 a 1.4153,1.4153 0 0 1 -1.41088,1.31682 z"
     fill="#ffffff"
     id="path64" />
  <path
     d="m 540.60276,446.37675 c 0.0332,0 0.0678,-0.001 0.101,-0.004 a 1.41553,1.41553 0 0 0 1.31267,-1.51185 L 526.71529,228.8082 a 1.39922,1.39922 0 0 0 -1.51185,-1.31268 1.41553,1.41553 0 0 0 -1.31267,1.51186 l 15.30111,216.05255 a 1.4153,1.4153 0 0 0 1.41088,1.31682 z"
     fill="#ffffff"
     id="path66" />
  <path
     d="m 522.18941,433.62905 c 0.0332,0 0.0678,-0.001 0.101,-0.004 a 1.41553,1.41553 0 0 0 1.31267,-1.51185 L 508.30194,216.06049 a 1.39921,1.39921 0 0 0 -1.51185,-1.31267 1.41553,1.41553 0 0 0 -1.31267,1.51185 l 15.30116,216.05256 a 1.4153,1.4153 0 0 0 1.41083,1.31682 z"
     fill="#ffffff"
     id="path68" />
  <path
     d="m 505.19247,419.46493 c 0.0332,0 0.0678,-10e-4 0.101,-0.004 a 1.41553,1.41553 0 0 0 1.31267,-1.51185 L 491.305,201.89638 a 1.3992,1.3992 0 0 0 -1.51185,-1.31267 1.41553,1.41553 0 0 0 -1.31267,1.51185 l 15.3011,216.05255 a 1.41528,1.41528 0 0 0 1.41089,1.31682 z"
     fill="#ffffff"
     id="path70" />
  <path
     d="m 157.59129,226.97389 c 31.92708,-10.18627 67.54612,-7.48949 97.79249,6.86086 a 128.767,128.767 0 0 1 24.30154,14.96765 c 2.12748,1.66973 5.155,-1.317 3.00466,-3.00467 a 139.18729,139.18729 0 0 0 -97.705,-28.65175 133.69837,133.69837 0 0 0 -28.52335,5.73047 c -2.59534,0.828 -1.48609,4.932 1.12962,4.09744 z"
     fill="#3f3d56"
     id="path72" />
  <path
     d="m 333.27518,250.45078 c 29.68384,-15.60224 65.22951,-19.00454 97.50383,-10.14806 a 128.52039,128.52039 0 0 1 26.512,10.54121 c 2.41182,1.28694 4.56081,-2.37985 2.14467,-3.66908 -30.7598,-16.41326 -67.684,-20.19162 -101.27415,-11.04221 a 133.65686,133.65686 0 0 0 -27.031,10.64905 c -2.42152,1.27278 -0.27623,4.94155 2.14467,3.66909 z"
     fill="#3f3d56"
     id="path74" />
  <path
     d="m 333.27518,278.77901 c 29.68384,-15.60224 65.22951,-19.00454 97.50383,-10.14806 a 128.51987,128.51987 0 0 1 26.512,10.54122 c 2.41182,1.28693 4.56081,-2.37985 2.14467,-3.66909 -30.7598,-16.41326 -67.684,-20.19162 -101.27415,-11.04221 a 133.65686,133.65686 0 0 0 -27.031,10.649 c -2.42152,1.27278 -0.27623,4.94155 2.14467,3.66909 z"
     fill="#3f3d56"
     id="path76" />
  <path
     d="m 460.4753,305.58756 a 1.8212,1.8212 0 0 0 -1.047,-1.76127 139.34987,139.34987 0 0 0 -80.222,-15.02646 c -0.17335,0.0138 -0.33287,0.0416 -0.52006,0.0555 h -0.007 a 4.25452,4.25452 0 0 0 -0.50622,0.0763 134.22314,134.22314 0 0 0 -47.04176,14.49944 2.14427,2.14427 0 0 0 -1.04707,1.84453 v 52.84569 a 2.14422,2.14422 0 0 0 2.69048,2.03867 c 0.65182,-0.1872 1.30364,-0.3675 1.96934,-0.54085 a 210.62048,210.62048 0 0 1 45.3498,-7.09374 c 0.32593,-0.0138 0.65182,-0.0277 0.99159,-0.0416 a 237.56912,237.56912 0 0 1 37.41013,1.3452 7.79956,7.79956 0 0 1 0.77663,0.0832 c 0.63793,0.0694 1.28975,0.14564 1.92773,0.22884 0.25656,0.0277 0.49925,0.0555 0.735,0.0971 2.48242,0.312 4.9441,0.66566 7.41268,1.04708 q 5.34624,0.85292 10.69257,1.9 c 0.2219,0.0416 0.45074,0.0971 0.67954,0.13869 5.72073,1.13718 11.41375,2.4547 17.079,3.91087 a 2.15283,2.15283 0 0 0 2.69049,-2.0525 v -53.51153 a 0.17575,0.17575 0 0 0 -0.0139,-0.0832 z"
     fill="#3f3d56"
     id="path78" />
  <path
     d="m 382.53752,291.68139 a 6.98812,6.98812 0 0 0 -5.0068,-0.43986 5.93389,5.93389 0 0 0 -3.33484,3.13627 15.08318,15.08318 0 0 0 -1.09769,4.31411 c -0.088,0.58389 -0.0935,1.32065 0.4934,1.59325 a 1.24284,1.24284 0 0 0 1.26123,-0.24972 3.72724,3.72724 0 0 0 0.73848,-1.03033 11.21525,11.21525 0 0 1 9.4739,-5.15079 l 1.56875,0.62532 a 18.58017,18.58017 0 0 0 -4.09643,-2.79825 z"
     fill="#ff6582"
     id="path80" />
  <path
     d="m 399.51607,303.86156 c -1.2174,-1.79223 -2.66,-3.7058 -4.91917,-4.291 -2.6163,-0.67771 -5.30389,0.66859 -7.58359,1.99712 a 221.54111,221.54111 0 0 0 -19.6664,12.89771 l 0.007,0.0696 14.67535,-0.90083 c 3.53432,-0.21695 7.19006,-0.46382 10.31342,-1.952 a 9.7255,9.7255 0 0 1 3.68357,-1.37165 6.15648,6.15648 0 0 1 4.26687,2.05572 c 6.76333,6.41063 8.72051,16.214 16.30829,21.84622 A 206.082,206.082 0 0 0 399.5162,303.86159 Z"
     fill="#ffffff"
     id="path82" />
  <path
     d="m 381.08771,352.48278 c -0.33958,0.0142 -0.66567,0.0283 -0.99142,0.0425 -2.36529,-0.84981 -4.7873,-1.60055 -7.23766,-2.25222 -1.58655,-0.42482 -3.20111,-0.80728 -4.816,-1.133 -1.82723,-0.39647 -3.66829,-0.70821 -5.50969,-0.97742 a 88.11476,88.11476 0 0 0 -10.58055,-0.89217 0.19234,0.19234 0 1 1 0,-0.38246 c 0.453,0 0.90635,0.0142 1.34552,0.0425 a 88.23278,88.23278 0 0 1 10.59473,1.034 c 1.82723,0.29739 3.65445,0.65149 5.4675,1.04813 1.64291,0.36828 3.28583,0.77909 4.90073,1.23227 q 3.46286,0.97718 6.82684,2.23781 z"
     fill="#ffffff"
     id="path84" />
  <path
     d="m 421.93715,354.23911 c -0.24068,-0.0425 -0.48171,-0.0709 -0.73656,-0.0991 -0.97725,-0.80728 -1.96866,-1.5722 -3.00262,-2.32294 -1.28915,-0.93488 -2.6205,-1.813 -3.9802,-2.6345 a 70.6711,70.6711 0 0 0 -9.40516,-4.78748 93.78572,93.78572 0 0 0 -15.8921,-5.01415 158.1359,158.1359 0 0 0 -18.79546,-2.94607 c -6.31749,-0.65167 -12.663,-1.04813 -19.00848,-1.44477 -0.269,-0.0142 -0.28321,-0.41064 0,-0.39664 0.79327,0.0567 1.58655,0.0991 2.39365,0.15579 6.41639,0.39663 12.83277,0.85 19.20663,1.57237 a 146.42475,146.42475 0 0 1 18.76745,3.25764 91.27951,91.27951 0 0 1 15.38238,5.28319 69.94194,69.94194 0 0 1 8.27162,4.405 c 1.68545,1.06231 3.31453,2.19551 4.87237,3.39943 0.65184,0.50989 1.30334,1.01995 1.92648,1.5722 z"
     fill="#ffffff"
     id="path86" />
  <path
     d="m 419.27446,353.91337 a 7.69527,7.69527 0 0 0 -0.7791,-0.0851 c -0.29739,-0.24068 -0.6093,-0.46736 -0.92053,-0.694 a 64.77854,64.77854 0 0 0 -6.813,-4.26341 72.16616,72.16616 0 0 0 -6.58652,-3.15857 92.52514,92.52514 0 0 0 -15.89209,-5.014 158.10729,158.10729 0 0 0 -18.79581,-2.94608 c -6.31714,-0.65166 -12.66264,-1.04813 -19.00814,-1.44476 -0.269,-0.0284 -0.269,-0.41082 0,-0.39664 0.80746,0.0567 1.60038,0.0991 2.39366,0.15579 6.41638,0.39646 12.83277,0.84981 19.20662,1.57219 a 146.39352,146.39352 0 0 1 18.76745,3.25782 90.80435,90.80435 0 0 1 15.382,5.28318 c 1.86976,0.84982 3.697,1.77052 5.48168,2.77612 a 57.987,57.987 0 0 1 7.56378,4.95743 z"
     fill="#ffffff"
     id="path88" />
  <path
     d="m 440.71878,357.32697 c -0.2265,-0.0425 -0.45335,-0.0991 -0.67985,-0.14161 -0.25486,-0.26921 -0.49588,-0.55242 -0.73656,-0.83581 q -1.82688,-2.10335 -3.61192,-4.24923 c -4.68806,-5.58058 -9.13579,-11.33129 -13.32831,-17.19509 q -5.39661,-7.52123 -10.24063,-15.33984 c -1.544,-2.46455 -3.03131,-4.95744 -4.48991,-7.4787 q -1.6998,-2.93172 -3.31453,-5.878 c -0.31157,-0.5666 -0.609,-1.1332 -0.90635,-1.6998 -0.69437,-1.33151 -1.3884,-2.677 -2.12462,-3.9942 a 11.28767,11.28767 0 0 0 -3.428,-4.07927 5.01571,5.01571 0 0 0 -2.43619,-0.83564 7.36587,7.36587 0 0 0 -3.51267,0.90635 114.45039,114.45039 0 0 0 -22.28007,13.66843 107.685,107.685 0 0 0 -18.10178,17.88929 c -0.16979,0.19831 -0.53842,0.0142 -0.38246,-0.19832 0.63731,-0.7931 1.28881,-1.58638 1.9403,-2.36547 a 108.58025,108.58025 0 0 1 17.12454,-16.2745 c 0.0142,-0.0142 0.0425,-0.0283 0.0567,-0.0424 0.55225,-0.43917 1.10484,-0.864 1.67127,-1.2748 a 115.92163,115.92163 0 0 1 10.935,-7.13877 q 2.88919,-1.67853 5.90633,-3.18693 c 0.49553,-0.25486 1.00559,-0.50989 1.51531,-0.75074 0.51006,-0.25486 1.02012,-0.49553 1.52983,-0.73656 a 8.33807,8.33807 0 0 1 3.24364,-0.89217 c 3.93767,-0.0567 5.963,3.90931 7.36527,6.58617 0.43917,0.83581 0.89252,1.67144 1.33169,2.50708 1.69963,3.15857 3.47014,6.30313 5.31155,9.405 1.11867,1.9263 2.28022,3.83859 3.456,5.73654 1.68544,2.70539 3.41342,5.38226 5.21229,8.04529 a 0.01389,0.01389 0 0 0 0.0142,0.0142 c 2.08209,3.14439 4.24924,6.23207 6.48728,9.30575 q 5.75763,7.88225 12.06785,15.41056 2.16712,2.59191 4.40481,5.11317 z"
     fill="#ffffff"
     id="path90" />
  <path
     d="m 460.49183,351.08056 v 0.6515 c -1.40224,-1.64292 -2.83283,-3.27182 -4.24924,-4.90073 q -0.89217,-1.01978 -1.78469,-2.03955 -3.78188,-4.29177 -7.606,-8.55518 c -2.56379,-2.83283 -5.12758,-5.66565 -7.71972,-8.48429 -0.62314,-0.67985 -1.24628,-1.3597 -1.88359,-2.03955 a 14.66318,14.66318 0 0 0 -1.65744,-1.58655 6.15005,6.15005 0 0 0 -2.02537,-1.119 5.07747,5.07747 0 0 0 -2.606,-0.0282 c -0.97758,0.22667 -1.91229,0.58077 -2.86117,0.87816 -0.97759,0.32575 -1.94065,0.63732 -2.9179,0.94889 -1.95482,0.63749 -3.89513,1.275 -5.84995,1.91229 a 0.1936,0.1936 0 0 1 -0.25486,-0.11342 0.19745,0.19745 0 0 1 0.14178,-0.269 c 0.4817,-0.15578 0.97724,-0.31156 1.47312,-0.46752 1.96866,-0.6515 3.92314,-1.28881 5.89215,-1.92613 0.97724,-0.32592 1.95448,-0.63749 2.93207,-0.94906 a 8.76284,8.76284 0 0 1 2.83282,-0.56659 6.40875,6.40875 0 0 1 4.16417,1.95465 c 0.609,0.5666 1.16155,1.16138 1.7138,1.77051 q 0.97723,1.06232 1.95483,2.12462 3.93022,4.29177 7.80409,8.61172 3.88822,4.33431 7.70554,8.68261 0.276,0.31875 0.55225,0.63749 c 1.43066,1.61448 2.8329,3.24356 4.24931,4.87231 z"
     fill="#ffffff"
     id="path92" />
  <path
     d="m 390.18558,294.77141 -0.3918,0.17132 a 10.69107,10.69107 0 0 0 -8.63631,-5.22851 c -5.79888,-0.41194 -10.89281,3.45259 -11.35588,8.614 a 8.53048,8.53048 0 0 0 1.72435,5.9379 l -0.36368,0.215 a 8.88375,8.88375 0 0 1 -1.79586,-6.18381 c 0.48188,-5.37491 5.787,-9.3994 11.82587,-8.97047 a 11.133,11.133 0 0 1 8.99331,5.44457 z"
     fill="#ff6582"
     id="path94" />
  <path
     d="m 361.53165,305.21415 a 10.45864,10.45864 0 0 0 -9.525,0.60631 150.15194,150.15194 0 0 1 15.45625,3.211 c -2.10842,-1.09981 -3.75772,-2.82297 -5.93125,-3.81731 z"
     fill="#ffffff"
     id="path96" />
  <path
     d="m 351.97736,305.81578 -0.57311,0.41464 c 0.19385,-0.14513 0.39538,-0.2812 0.60241,-0.41 z"
     fill="#ffffff"
     id="path98" />
  <path
     d="m 435.3714,326.73592 a 4.78836,4.78836 0 0 0 -2.06266,-1.5328 l -0.80528,0.0283 a 85.05431,85.05431 0 0 0 24.32912,24.75752 q -10.7306,-11.62648 -21.46118,-23.25299 z"
     fill="#ffffff"
     id="path100" />
  <path
     d="m 369.23652,308.22056 c -0.22844,-0.22668 -0.45546,-0.45335 -0.68539,-0.68 a 19.89084,19.89084 0 0 0 -6.24857,-4.57235 10.00066,10.00066 0 0 0 -3.798,-0.78365 11.98479,11.98479 0 0 0 -3.9435,0.76552 c -0.59373,0.21113 -1.17438,0.45075 -1.74623,0.70592 -0.65341,0.29273 -1.29517,0.6049 -1.93395,0.91965 q -1.79867,0.886 -3.55064,1.84966 -3.486,1.91768 -6.75355,4.12807 -1.69389,1.14632 -3.31787,2.36777 -1.51047,1.13466 -2.95983,2.33021 c -0.20662,0.16969 -0.51514,-0.10491 -0.30851,-0.27459 0.25466,-0.21114 0.51223,-0.421 0.7698,-0.62821 q 1.09138,-0.8782 2.21774,-1.72273 2.05392,-1.54269 4.21421,-2.96619 3.35934,-2.21495 6.94994,-4.12936 1.7943,-0.95592 3.638,-1.83153 c 0.37112,-0.17616 0.74657,-0.34844 1.12635,-0.51164 a 19.28065,19.28065 0 0 1 2.67753,-0.97017 10.64418,10.64418 0 0 1 4.044,-0.35361 11.41889,11.41889 0 0 1 3.73112,1.14892 24.48209,24.48209 0 0 1 6.186,4.93243 c 0.18617,0.18651 -0.12093,0.46241 -0.30865,0.27588 z"
     fill="#ffffff"
     id="path102" />
  <path
     d="m 157.59129,255.30213 c 31.92708,-10.18628 67.54612,-7.4895 97.79249,6.86085 a 128.767,128.767 0 0 1 24.30154,14.96765 c 2.12748,1.66973 5.155,-1.317 3.00466,-3.00467 a 139.18734,139.18734 0 0 0 -97.705,-28.65175 133.69837,133.69837 0 0 0 -28.52335,5.73047 c -2.59534,0.828 -1.48609,4.932 1.12962,4.09745 z"
     fill="#3f3d56"
     id="path104" />
  <path
     d="m 157.59129,283.63036 c 31.92708,-10.18627 67.54612,-7.4895 97.79249,6.86085 a 128.767,128.767 0 0 1 24.30154,14.96765 c 2.12748,1.66973 5.155,-1.317 3.00466,-3.00467 a 139.18734,139.18734 0 0 0 -97.705,-28.65175 133.69837,133.69837 0 0 0 -28.52335,5.73047 c -2.59534,0.828 -1.48609,4.932 1.12962,4.09745 z"
     fill="#3f3d56"
     id="path106" />
  <path
     d="m 157.59129,311.95856 c 31.92708,-10.18627 67.54612,-7.4895 97.79249,6.86085 a 128.767,128.767 0 0 1 24.30154,14.96765 c 2.12748,1.66973 5.155,-1.317 3.00466,-3.00467 a 139.18734,139.18734 0 0 0 -97.705,-28.65175 133.69837,133.69837 0 0 0 -28.52335,5.73047 c -2.59534,0.828 -1.48609,4.932 1.12962,4.09745 z"
     fill="#3f3d56"
     id="path108" />
  <path
     d="m 157.59129,340.28682 c 31.92708,-10.18627 67.54612,-7.48949 97.79249,6.86085 a 128.767,128.767 0 0 1 24.30154,14.96765 c 2.12748,1.66973 5.155,-1.317 3.00466,-3.00466 a 139.1873,139.1873 0 0 0 -97.705,-28.65176 133.69837,133.69837 0 0 0 -28.52335,5.73047 c -2.59534,0.828 -1.48609,4.932 1.12962,4.09745 z"
     fill="#3f3d56"
     id="path110" />
  <path
     d="m 157.59129,368.61505 c 31.92708,-10.18627 67.54612,-7.48949 97.79249,6.86085 a 128.767,128.767 0 0 1 24.30154,14.96766 c 2.12748,1.66973 5.155,-1.317 3.00466,-3.00466 a 139.1873,139.1873 0 0 0 -97.705,-28.65176 133.69837,133.69837 0 0 0 -28.52335,5.73047 c -2.59534,0.828 -1.48609,4.932 1.12962,4.09745 z"
     fill="#3f3d56"
     id="path112" />
  <path
     d="m 272.62026,181.39556 v 79.39686 c 0,1.35218 -2.35766,2.48247 -5.54044,2.78757 -0.55473,0.0555 -1.13722,0.0832 -1.7405,0.0832 a 14.50725,14.50725 0 0 1 -5.14518,-0.83906 6.62848,6.62848 0 0 1 -0.8876,-0.423 c -0.79051,-0.46458 -1.24815,-1.01241 -1.24815,-1.60875 v -85.5198 c 2.59339,0.86678 5.01343,1.77516 7.28093,2.71825 2.635,1.09563 5.05504,2.23285 7.28094,3.40472 z"
     fill="#ff2a2a"
     id="path114" />
  <rect
     x="301.05872"
     y="208.61943"
     width="2.0802701"
     height="256.82971"
     fill="#e6e6e6"
     id="rect116" />
  <path
     d="m 488.79599,415.58756 a 22.01957,22.01957 0 0 1 -16.65,6.75 c -9.62,-0.34 -21.1,-0.51 -33.56,-0.25 l -0.07,-0.06 54,-70 2.33,46.67 a 22.02245,22.02245 0 0 1 -6.05,16.89 z"
     fill="#f2f2f2"
     id="path118" />
</svg>
