<svg width="300" height="250" viewBox="0 0 428 690" fill="none" xmlns="http://www.w3.org/2000/svg">
    <g clip-path="url(#clip0_18_93)">
    <path d="M86.4036 73.7918L73.551 21.3349L69.3588 4.24602C69.011 2.83628 68.0686 1.61133 66.7389 0.840635C65.4091 0.0699365 63.801 -0.183393 62.2682 0.136382L55.9368 1.45338L5.16437 11.9892C4.4064 12.1463 3.6895 12.4392 3.05466 12.8512C2.41982 13.2632 1.87947 13.7862 1.4645 14.3904C1.04954 14.9945 0.768103 15.668 0.636249 16.3722C0.504395 17.0765 0.524724 17.7977 0.696073 18.4947C-2.02965 41.8354 3.35293 63.3671 15.0325 83.5184C15.8951 85.0258 16.8095 86.5332 17.7583 88.0406C18.0094 89.0829 18.5919 90.0329 19.4318 90.7697C20.1387 91.3909 21.0015 91.8419 21.9435 92.0827C22.8855 92.3236 23.8775 92.3467 24.8316 92.1502L31.4909 90.7697L35.5969 89.9129L81.9355 80.2974C83.4658 79.9794 84.7962 79.1154 85.6341 77.8955C86.4719 76.6755 86.7488 75.1995 86.4036 73.7918Z" fill="#E6E6E6"/>
    <path d="M81.0901 70.8723L68.8412 20.97L65.9085 8.99029C65.5852 7.67134 64.7059 6.52436 63.4637 5.80138C62.2215 5.07841 60.718 4.83857 59.2837 5.13457L55.3847 5.94381L10.2019 15.3213C8.76786 15.6186 7.52078 16.4273 6.73471 17.5698C5.94864 18.7123 5.68786 20.0951 6.00968 21.4143C6.40644 39.5822 8.4767 56.0682 16.9819 66.128C17.9499 70.0409 20.0275 73.6482 23.0032 76.583C25.979 79.5177 29.7467 81.6753 33.9233 82.8361C34.0268 82.8679 34.113 82.8997 34.2166 82.9313C34.2856 82.9472 34.3719 82.979 34.4408 82.9949C38.372 84.0121 42.5172 84.1103 46.5 83.2805L76.8979 76.9652C78.3319 76.6679 79.579 75.8592 80.3651 74.7168C81.1511 73.5743 81.4119 72.1915 81.0901 70.8723Z" fill="white"/>
    <path d="M36.0756 31.9604C37.0753 30.8994 38.4215 30.1644 39.913 29.8653C41.4044 29.5662 42.9611 29.719 44.3503 30.3009C47.3654 31.686 48.5353 34.6329 48.0535 37.5632C47.5154 40.8366 45.6563 43.8166 45.4875 47.1682C45.3397 50.1014 46.5285 53.1833 49.3545 54.7625C51.381 55.8948 53.4668 53.0916 51.4306 51.9538C48.08 50.0815 49.206 45.9671 50.1779 43.1607C51.3915 39.6564 52.6561 36.0839 51.1548 32.4731C50.4902 30.9613 49.424 29.627 48.0538 28.592C46.6837 27.5571 45.0533 26.8547 43.3117 26.549C41.5701 26.2434 39.773 26.3442 38.0848 26.8424C36.3965 27.3405 34.871 28.2201 33.6478 29.4005C32.049 30.9862 34.4566 33.566 36.0756 31.9604Z" fill="#FFD600"/>
    <path d="M52.3401 64.5503C54.3795 64.5503 56.0328 63.0297 56.0328 61.154C56.0328 59.2783 54.3795 57.7577 52.3401 57.7577C50.3007 57.7577 48.6475 59.2783 48.6475 61.154C48.6475 63.0297 50.3007 64.5503 52.3401 64.5503Z" fill="#FFD600"/>
    <path d="M284.751 656.488L226.291 656.167L207.245 656.065C203.972 656.049 201.289 657.194 201.253 658.621L201.176 661.453L200.535 684.158C200.486 685.577 203.105 686.755 206.378 686.77C230.224 690.358 254.512 690.72 278.473 687.845C280.267 687.645 282.072 687.426 283.888 687.186C284.996 687.202 286.1 687.064 287.163 686.777C288.779 686.318 289.848 685.532 289.876 684.637L289.962 681.66L290.008 679.823L290.594 659.101C290.63 657.673 288.007 656.502 284.751 656.488Z" fill="#E6E6E6"/>
    <path d="M280.43 658.422L224.812 658.126L211.461 658.051C208.402 658.035 205.884 659.104 205.846 660.438L205.797 662.182L205.228 682.387C205.189 683.722 207.639 684.82 210.699 684.837C230.005 686.669 247.92 687.605 260.534 685.104C269.715 685.146 277.813 682.987 282.136 679.754C282.193 679.714 282.247 679.681 282.304 679.64C282.337 679.613 282.391 679.579 282.424 679.552C283.304 678.955 284.035 678.193 284.57 677.316C285.105 676.439 285.43 675.468 285.525 674.466L285.901 660.872C285.939 659.537 283.489 658.438 280.43 658.422Z" fill="white"/>
    <path d="M228.83 673.24C227.125 672.126 226.947 670.612 228.995 669.546C231.16 668.419 234.548 668.247 237.535 668.774C240.872 669.362 243.593 670.479 247.098 670.92C250.166 671.306 253.701 671.14 256.027 670.115C257.695 669.38 255.214 668.186 253.538 668.925C250.781 670.141 246.691 669.21 243.948 668.488C240.524 667.588 237.039 666.658 232.872 666.897C225.29 667.333 221.335 671.229 225.559 673.988C226.865 674.841 230.152 674.103 228.83 673.24L228.83 673.24Z" fill="#E6E6E6"/>
    <path d="M263.48 671.163C265.519 671.163 267.172 670.442 267.172 669.552C267.172 668.662 265.519 667.941 263.48 667.941C261.44 667.941 259.787 668.662 259.787 669.552C259.787 670.442 261.44 671.163 263.48 671.163Z" fill="#E6E6E6"/>
    <path d="M3.31155 262.841C-1.76796 243.219 -0.920856 223.893 7.77712 204.959C7.86894 203.787 8.46222 202.697 9.42682 201.928C10.3914 201.158 11.6486 200.772 12.9225 200.853L60.4513 203.955C61.725 204.04 62.9102 204.585 63.747 205.473C64.5838 206.36 65.0037 207.516 64.9148 208.688L60.4493 266.57C60.3574 267.741 59.7641 268.831 58.7995 269.601C57.8349 270.371 56.5778 270.757 55.3039 270.675L7.7751 267.573C6.50143 267.489 5.31617 266.943 4.47938 266.056C3.6426 265.169 3.22261 264.013 3.31155 262.841Z" fill="#F2F2F2"/>
    <path d="M8.30609 245.596C4.24101 235.927 6.84017 222.629 11.177 208.384C11.2629 207.287 11.8185 206.266 12.7219 205.545C13.6253 204.824 14.8027 204.463 15.9957 204.539L56.8428 207.205C58.0356 207.284 59.1457 207.795 59.9294 208.626C60.7131 209.457 61.1065 210.54 61.0232 211.637L57.0495 263.144C56.9635 264.242 56.4078 265.262 55.5044 265.983C54.6009 266.704 53.4235 267.066 52.2305 266.989L26.9266 265.338C21.6133 264.985 16.6688 262.709 13.178 259.008C9.68719 255.307 7.93508 250.484 8.30609 245.596Z" fill="white"/>
    <path d="M36.5856 248.12C35.3379 247.922 34.0903 247.725 32.8426 247.528C33.4174 246.28 33.7492 244.949 33.8227 243.596C34.4132 236.351 34.4728 229.038 34.7878 221.779C34.7796 221.513 34.6881 221.256 34.5242 221.037C34.3604 220.818 34.1313 220.648 33.8645 220.546C33.5978 220.445 33.3047 220.416 33.0207 220.464C32.7367 220.512 32.4739 220.635 32.264 220.817C29.1306 223.204 25.9971 225.591 22.8636 227.979C21.3969 229.096 23.4987 231.01 24.9544 229.901C27.2034 228.188 29.4525 226.475 31.7016 224.762C31.4951 229.518 31.2887 234.274 31.0823 239.031C30.9832 241.314 31.2849 244.086 30.2688 246.232C30.1299 246.521 29.9485 246.792 29.7297 247.036C28.3484 246.818 26.967 246.6 25.5856 246.381C24.5921 246.224 23.3298 246.987 23.767 248.054C24.7178 250.374 27.5206 251.107 29.924 250.212C30.1358 250.125 30.3408 250.024 30.5374 249.91L35.7996 250.742C37.6607 251.036 38.4602 248.416 36.5856 248.12Z" fill="#F2F2F2"/>
    <path d="M175.79 268.28C170.71 248.658 171.557 229.332 180.255 210.398C180.347 209.226 180.94 208.136 181.905 207.366C182.87 206.597 184.127 206.211 185.401 206.292L232.93 209.394C234.203 209.479 235.388 210.024 236.225 210.911C237.062 211.799 237.482 212.955 237.393 214.127L232.927 272.009C232.836 273.18 232.242 274.27 231.278 275.04C230.313 275.809 229.056 276.196 227.782 276.114L180.253 273.012C178.98 272.928 177.794 272.382 176.958 271.495C176.121 270.608 175.701 269.451 175.79 268.28Z" fill="#F2F2F2"/>
    <path d="M180.784 251.035C176.719 241.366 179.318 228.068 183.655 213.823C183.741 212.726 184.297 211.705 185.2 210.984C186.104 210.263 187.281 209.902 188.474 209.978L229.321 212.644C230.514 212.723 231.624 213.234 232.408 214.065C233.191 214.896 233.585 215.979 233.501 217.076L229.528 268.583C229.442 269.68 228.886 270.701 227.983 271.422C227.079 272.143 225.902 272.505 224.709 272.428L199.405 270.777C194.092 270.424 189.147 268.148 185.656 264.447C182.165 260.746 180.413 255.923 180.784 251.035Z" fill="white"/>
    <path d="M207.45 241.214C207.993 240.981 208.506 240.694 208.982 240.359C210.249 239.399 211.185 238.121 211.677 236.68C212.17 235.24 212.197 233.699 211.757 232.245C209.84 225.769 201.418 225.729 195.603 226.509C193.727 226.76 194.525 229.381 196.389 229.131C200.308 228.606 206.46 228.181 208.565 232.118C209.046 233.043 209.217 234.078 209.057 235.092C208.897 236.107 208.412 237.054 207.665 237.815C206.772 238.639 205.596 239.153 204.338 239.27C203.118 238.782 201.795 238.555 200.466 238.606C199.096 238.665 198.333 240.498 199.72 241.14C200.948 241.702 202.3 241.995 203.672 241.997C204.809 242.501 205.759 243.304 206.402 244.303C207.045 245.303 207.352 246.455 207.286 247.615C207.155 248.409 206.854 249.171 206.402 249.858C205.95 250.545 205.354 251.143 204.65 251.618C203.945 252.092 203.146 252.434 202.297 252.623C201.448 252.813 200.567 252.846 199.705 252.721C197.847 252.377 197.052 254.998 198.919 255.343C200.193 255.564 201.503 255.545 202.769 255.288C204.035 255.031 205.232 254.541 206.287 253.848C207.342 253.154 208.233 252.271 208.907 251.252C209.581 250.233 210.024 249.099 210.209 247.919C210.326 246.683 210.139 245.438 209.662 244.277C209.184 243.116 208.428 242.069 207.45 241.214Z" fill="#F2F2F2"/>
    <path d="M268.184 639.472L251.462 639.471L243.507 580.148L268.187 580.15L268.184 639.472Z" fill="#FFB6B6"/>
    <path d="M268.772 655.517L217.349 655.515L217.349 654.917C217.35 650.035 219.458 645.353 223.212 641.901C226.965 638.448 232.056 636.509 237.365 636.509L237.366 636.509L246.759 629.955L264.284 636.51L268.773 636.51L268.772 655.517Z" fill="#2F2E41"/>
    <path d="M345.06 672.106L328.338 672.105L320.383 612.781L345.063 612.783L345.06 672.106Z" fill="#FFB6B6"/>
    <path d="M345.648 688.15L294.225 688.149L294.225 687.55C294.226 682.668 296.334 677.986 300.088 674.534C303.841 671.082 308.932 669.142 314.241 669.142L314.242 669.142L323.635 662.588L341.16 669.143L345.649 669.143L345.648 688.15Z" fill="#2F2E41"/>
    <path d="M139.319 197.688C140.467 198.869 141.881 199.806 143.462 200.435C145.043 201.064 146.754 201.369 148.476 201.33C150.198 201.291 151.891 200.908 153.436 200.208C154.982 199.508 156.343 198.508 157.427 197.277L214.445 212.204L222.812 198.714L154.95 181.44C152.56 179.916 149.646 179.252 146.76 179.572C143.873 179.892 141.214 181.176 139.288 183.178C137.361 185.181 136.3 187.765 136.306 190.439C136.311 193.113 137.383 195.692 139.319 197.688Z" fill="#FFB6B6"/>
    <path d="M287.591 322.543L227.596 448.708L220.697 468.651L241.556 608.626L275.224 607.115L275.148 589.164C275.148 589.164 267.136 585.168 275.122 582.997C283.108 580.827 282.772 575.317 275.055 567.194C267.339 559.071 274.694 481.341 274.694 481.341C274.694 481.341 306.466 453.358 303.005 446.047C299.544 438.737 305.969 438.737 305.969 438.737C305.969 438.737 312.82 437.61 313.081 434.548C313.342 431.485 318.419 425.327 318.419 425.327L316.641 640.909L345.69 640.909C345.69 640.909 358.972 620.611 356.362 616.243C353.752 611.875 350.101 611.446 356.362 606.222C362.622 600.997 371.81 605.272 367.709 595.429C363.607 585.587 364.661 479.369 364.661 479.369C364.661 479.369 380.821 417.731 370.837 413.545C360.853 409.36 365.817 409.951 371.712 404.217C377.608 398.482 367.609 399.006 372.609 394.665C377.608 390.324 377.81 339.232 377.81 339.232L287.591 322.543Z" fill="#2F2E41"/>
    <path d="M382.334 358.06C340.279 357.969 304.196 366.662 262.141 366.572C264.881 349.131 274.456 321.795 277.195 304.35C281.046 279.814 278.06 265.169 281.902 240.634C282.286 238.232 282.661 235.839 283.035 233.437C284.553 223.738 280.916 214.038 287.441 203.795C290.22 199.426 294.843 194.966 302.501 190.361C318.408 191.848 318.132 185.248 334.04 186.735L339.303 196.38C339.973 200.042 342.388 202.426 345.66 204.23C352.391 207.974 362.76 209.279 368.989 214.346C376.814 220.71 376.292 230.89 373.966 240.825C373.138 244.36 372.083 247.859 371.088 251.15C363.076 277.661 373.317 297.887 381.667 322.48C382.459 324.812 374.96 333.83 375.754 336.077C377.101 339.885 381.926 344.621 381.158 347.194C380.207 350.38 379.259 353.377 382.334 358.06Z" fill="#FFD600"/>
    <path d="M373.966 240.825L281.902 240.634L278.945 240.625L169.765 203.731L183.737 204.167L190.222 190.415L193.347 183.807L257.696 203.586L287.441 203.795L343.521 204.176C344.241 204.185 344.95 204.203 345.66 204.23C352.391 207.974 362.76 209.279 368.989 214.346C376.814 220.71 376.292 230.89 373.966 240.825Z" fill="#FFD600"/>
    <path d="M311.068 184.104C327.591 184.104 340.986 171.785 340.986 156.588C340.986 141.391 327.591 129.071 311.068 129.071C294.545 129.071 281.15 141.391 281.15 156.588C281.15 171.785 294.545 184.104 311.068 184.104Z" fill="#FFB6B6"/>
    <path d="M306.816 180.239L309.253 187.406C314.657 184.952 329.989 181.548 334.488 177.861C338.988 174.174 342.468 169.086 342.681 163.547C342.791 160.686 342.038 157.8 342.555 154.978C343.139 151.788 345.279 149.023 346.259 145.916C347.175 142.663 346.83 139.217 345.283 136.172C343.736 133.127 341.083 130.673 337.781 129.232C332.822 127.228 327.151 127.79 321.76 127.306C316.368 126.821 310.354 124.578 308.837 119.796C308.269 118.007 308.334 115.899 306.598 114.728C305.725 114.192 304.667 113.971 303.628 114.109C302.589 114.247 301.642 114.734 300.97 115.476C300.89 115.56 300.813 115.644 300.74 115.729C296.176 120.995 287.575 121.386 283.073 116.075C282.779 115.728 282.497 115.373 282.225 115.01C281.279 115.824 280.518 116.803 279.986 117.89C279.454 118.977 279.162 120.15 279.126 121.341C279.09 122.532 279.311 123.718 279.776 124.831C280.241 125.943 280.942 126.959 281.837 127.821C280.137 127.822 278.486 127.295 277.151 126.327C275.817 125.359 274.875 124.005 274.48 122.485C272.415 125.107 270.296 127.843 269.632 131.023C268.968 134.203 270.2 137.964 273.371 139.371C274.99 139.959 276.727 140.221 278.464 140.138C270.285 149.037 275.192 148.781 291.757 140.37C299.975 140.514 296.73 147.537 296.836 155.096C300.704 154.754 304.687 154.42 308.344 155.918C310.047 156.577 311.483 157.712 312.448 159.162C314.865 162.98 312.467 166.949 310.342 170.422C308.526 173.39 306.804 176.965 308.311 180.077" fill="#2F2E41"/>
    <path d="M252.365 410.914C253.872 410.148 255.181 409.09 256.2 407.812C257.219 406.535 257.925 405.069 258.267 403.516C258.61 401.964 258.582 400.361 258.185 398.819C257.788 397.278 257.032 395.834 255.968 394.587L284.509 346.798L272.078 336.287L238.631 393.275C236.483 395.078 235.128 397.542 234.824 400.202C234.519 402.861 235.286 405.531 236.979 407.705C238.672 409.88 241.173 411.407 244.009 411.999C246.845 412.59 249.818 412.204 252.365 410.915L252.365 410.914Z" fill="#FFB6B6"/>
    <path d="M321.976 187.433L315.323 297.045L283.272 365.928L262.411 391.372L264.782 379.843L250.402 373.225L249.052 372.609L268.192 328.019L273.968 314.567L276.659 274.074L279.201 235.785C279.64 229.196 281.561 222.762 284.842 216.89C288.123 211.019 292.693 205.837 298.263 201.674L314.229 189.745L321.976 187.433Z" fill="#FFD600"/>
    <path d="M97.9281 187.603C92.8486 167.981 93.6957 148.655 102.394 129.721C102.486 128.549 103.079 127.459 104.043 126.69C105.008 125.92 106.265 125.534 107.539 125.616L155.068 128.717C156.342 128.802 157.527 129.348 158.364 130.235C159.2 131.122 159.62 132.278 159.531 133.45L155.066 191.332C154.974 192.503 154.381 193.593 153.416 194.363C152.452 195.133 151.194 195.519 149.92 195.437L102.392 192.335C101.118 192.251 99.9327 191.705 99.096 190.818C98.2592 189.931 97.8392 188.775 97.9281 187.603Z" fill="#F2F2F2"/>
    <path d="M102.923 170.358C98.8576 160.689 101.457 147.391 105.794 133.146C105.88 132.049 106.435 131.028 107.339 130.307C108.242 129.587 109.419 129.225 110.612 129.301L151.459 131.967C152.652 132.046 153.762 132.557 154.546 133.388C155.33 134.219 155.723 135.302 155.64 136.399L151.666 187.906C151.58 189.004 151.024 190.025 150.121 190.745C149.218 191.466 148.04 191.828 146.847 191.751L121.543 190.1C116.23 189.748 111.285 187.471 107.795 183.77C104.304 180.069 102.552 175.246 102.923 170.358Z" fill="white"/>
    <path d="M128.042 144.438C123.854 143.102 119.198 146.147 118.723 150.096C118.185 154.571 123.419 158.105 127.95 156.888C129.773 156.399 128.998 153.774 127.164 154.266C123.843 155.157 120.3 151.859 122.209 148.91C122.643 148.198 123.303 147.624 124.1 147.266C124.897 146.907 125.793 146.78 126.671 146.902C127.416 147.092 128.102 147.439 128.674 147.917C129.246 148.395 129.689 148.989 129.967 149.653C131.596 153.031 129.66 156.46 127.092 158.915C125.628 160.315 123.91 161.404 122.332 162.68C121.565 163.213 120.928 163.888 120.462 164.662C119.996 165.435 119.711 166.29 119.626 167.171C119.668 168.161 120.003 169.123 120.596 169.951C121.188 170.779 122.016 171.442 122.989 171.868C125.51 173.061 128.377 172.682 131.059 172.285C132.933 172.007 132.137 169.386 130.273 169.662C127.927 170.01 124.416 170.535 122.93 168.286C121.657 166.36 124.279 164.669 125.708 163.644C129.299 161.069 132.93 157.743 133.469 153.364C133.911 149.777 131.929 145.679 128.042 144.438Z" fill="#FFD600"/>
    <path d="M374.523 674.288C374.981 674.307 375.435 674.197 375.822 673.971C376.21 673.746 376.512 673.416 376.689 673.027C376.866 672.637 376.909 672.208 376.811 671.796C376.714 671.383 376.481 671.009 376.144 670.722L375.991 670.162C376.011 670.117 376.031 670.072 376.052 670.028C376.513 669.025 377.286 668.17 378.274 667.57C379.263 666.971 380.421 666.653 381.605 666.657C382.789 666.661 383.945 666.987 384.928 667.593C385.911 668.2 386.678 669.06 387.131 670.065C388.943 674.08 391.25 678.1 391.818 682.345C392.068 684.221 391.963 686.122 391.506 687.965C395.762 679.426 397.972 670.145 397.987 660.752C397.988 658.395 397.845 656.039 397.56 653.697C397.325 651.776 396.998 649.87 396.58 647.977C394.299 637.705 389.401 628.078 382.289 619.885C378.846 618.158 376.063 615.501 374.312 612.274C373.678 611.114 373.23 609.875 372.982 608.597C373.37 608.644 374.446 603.205 374.153 602.871C374.694 602.116 375.663 601.74 376.254 601.003C379.193 597.338 383.243 597.978 385.357 602.959C389.873 605.055 389.917 608.532 387.146 611.876C385.383 614.003 385.141 616.882 383.594 619.159C383.753 619.346 383.918 619.528 384.077 619.715C386.987 623.156 389.522 626.85 391.648 630.746C391.131 626.382 391.748 621.967 393.448 617.865C395.171 614.042 398.4 610.823 401.244 607.518C401.997 606.63 403.018 605.967 404.18 605.613C405.341 605.259 406.591 605.23 407.771 605.529C408.95 605.828 410.007 606.442 410.808 607.294C411.608 608.145 412.116 609.196 412.267 610.313C412.273 610.361 412.279 610.41 412.284 610.459C411.862 610.678 411.448 610.911 411.044 611.157C410.535 611.469 410.142 611.915 409.914 612.437C409.686 612.959 409.635 613.532 409.767 614.08C409.899 614.629 410.209 615.129 410.655 615.513C411.101 615.897 411.663 616.149 412.267 616.235L412.329 616.243C412.178 617.644 411.912 619.031 411.533 620.395C415.182 633.372 407.305 638.098 396.058 638.31C395.81 638.427 395.568 638.545 395.319 638.656C397.455 644.222 398.795 650.02 399.304 655.904C399.593 659.375 399.576 662.863 399.253 666.332L399.273 666.209C400.087 662.351 402.325 658.871 405.607 656.355C410.481 652.672 417.367 651.316 422.626 648.356C423.185 648.026 423.835 647.85 424.499 647.848C425.163 647.847 425.814 648.02 426.374 648.347C426.935 648.675 427.382 649.143 427.663 649.697C427.944 650.25 428.046 650.866 427.959 651.472L427.938 651.601C427.154 651.894 426.391 652.233 425.652 652.614C425.23 652.833 424.816 653.066 424.412 653.312C423.904 653.624 423.51 654.07 423.282 654.592C423.054 655.114 423.003 655.686 423.135 656.235C423.268 656.784 423.577 657.284 424.023 657.668C424.469 658.052 425.031 658.304 425.635 658.389L425.697 658.398C425.742 658.404 425.78 658.41 425.824 658.416C424.485 661.357 422.605 664.065 420.267 666.419C417.986 677.748 408.188 678.823 397.707 675.524L397.7 675.524C396.55 680.12 394.884 684.593 392.729 688.873L374.968 688.873C374.904 688.691 374.847 688.504 374.79 688.322C376.434 688.417 378.084 688.327 379.704 688.053C378.386 686.566 377.069 685.067 375.751 683.58C375.722 683.552 375.694 683.523 375.668 683.492C375 682.731 374.325 681.976 373.657 681.215L373.656 681.214C373.621 678.881 373.912 676.553 374.522 674.288L374.523 674.288Z" fill="#F2F2F2"/>
    <path d="M175.876 688.921C175.875 689.063 175.906 689.204 175.964 689.335C176.023 689.466 176.109 689.585 176.218 689.685C176.327 689.785 176.457 689.865 176.599 689.919C176.742 689.973 176.895 690 177.049 690L426.689 690C427 690 427.298 689.886 427.518 689.684C427.738 689.482 427.862 689.207 427.862 688.921C427.862 688.635 427.738 688.361 427.518 688.159C427.298 687.956 427 687.843 426.689 687.843L177.049 687.843C176.895 687.842 176.742 687.87 176.599 687.924C176.457 687.978 176.327 688.057 176.218 688.158C176.109 688.258 176.023 688.377 175.964 688.508C175.906 688.639 175.875 688.78 175.876 688.921Z" fill="#CCCCCC"/>
    <path d="M50.202 92.9441C48.9685 109.708 49.5611 128.734 63.7098 141.17C67.0249 144.111 70.9839 146.368 75.3225 147.79C77.1206 148.373 77.894 145.746 76.1085 145.167C68.8403 142.811 63.1221 137.632 59.3122 131.578C54.846 124.48 53.1419 116.292 52.7688 108.176C52.5955 103.096 52.7257 98.0109 53.1587 92.944C53.2873 91.1971 50.33 91.2044 50.202 92.944L50.202 92.9441Z" fill="#3F3D56"/>
    <path d="M72.242 131.306C75.7491 132.804 79.425 134.329 82.1992 136.877C84.73 139.201 86.497 142.591 85.4717 145.904C83.7894 151.34 76.2974 153.389 71.0739 154.685C70.7079 154.791 70.4007 155.023 70.2171 155.332C70.0335 155.642 69.9879 156.005 70.0898 156.345C70.1918 156.686 70.4333 156.976 70.7635 157.155C71.0938 157.335 71.4868 157.389 71.8599 157.307C77.1145 156.004 83.0064 154.183 86.4388 150.046C90.5002 145.15 88.5721 138.697 84.0098 134.703C81.0706 132.131 77.3733 130.513 73.7343 128.958C72.0195 128.225 70.516 130.568 72.242 131.306L72.242 131.306Z" fill="#3F3D56"/>
    </g>
    <defs>
    <clipPath id="clip0_18_93">
    <rect width="428" height="690" fill="white"/>
    </clipPath>
    </defs>
    </svg>
    