<?xml version="1.0" encoding="UTF-8" standalone="no"?>
<svg
   data-name="Layer 1"
   width="669.17503"
   height="511.62846"
   viewBox="0 0 669.17503 511.62846"
   version="1.1"
   id="svg105"
   sodipodi:docname="undraw_book_lover_re_rwjy.svg"
   inkscape:version="1.1.2 (1:1.1+202202050950+0a00cf5339)"
   xmlns:inkscape="http://www.inkscape.org/namespaces/inkscape"
   xmlns:sodipodi="http://sodipodi.sourceforge.net/DTD/sodipodi-0.dtd"
   xmlns="http://www.w3.org/2000/svg"
   xmlns:svg="http://www.w3.org/2000/svg">
  <defs
     id="defs109" />
  <sodipodi:namedview
     id="namedview107"
     pagecolor="#ffffff"
     bordercolor="#666666"
     borderopacity="1.0"
     inkscape:pageshadow="2"
     inkscape:pageopacity="0.0"
     inkscape:pagecheckerboard="0"
     showgrid="false"
     inkscape:zoom="1.0378625"
     inkscape:cx="334.341"
     inkscape:cy="282.79275"
     inkscape:window-width="1366"
     inkscape:window-height="705"
     inkscape:window-x="0"
     inkscape:window-y="27"
     inkscape:window-maximized="1"
     inkscape:current-layer="svg105" />
  <path
     id="be339808-9edc-488a-82d9-9b8c80f783b0-106"
     data-name="f02c4e45-f306-4b42-b3ad-5ddd3016d7d2"
     d="M544.05952,705.54479h389.281a1.247,1.247,0,0,0,0-2.494H544.0595a1.247,1.247,0,1,0,0,2.494h0Z"
     transform="translate(-265.41249 -194.18577)"
     fill="#ccc" />
  <path
     d="m 483.19541,293.96691 v 0.65149 c -1.40222,-1.64291 -2.83282,-3.27182 -4.24926,-4.90073 q -0.89218,-1.01976 -1.78467,-2.03955 -3.782,-4.2918 -7.606,-8.55517 c -2.56378,-2.83283 -5.12756,-5.66565 -7.71973,-8.48429 -0.62316,-0.67984 -1.24627,-1.35971 -1.8836,-2.03955 a 14.66188,14.66188 0 0 0 -1.65741,-1.58654 6.14963,6.14963 0 0 0 -2.02539,-1.119 5.07756,5.07756 0 0 0 -2.606,-0.0282 c -0.9776,0.22668 -1.91229,0.58078 -2.86114,0.87817 -0.9776,0.32575 -1.94068,0.63733 -2.91791,0.94889 -1.95484,0.63748 -3.89514,1.275 -5.85,1.91229 a 0.19356,0.19356 0 0 1 -0.2522,-0.10651 l -0.003,-0.007 a 0.19743,0.19743 0 0 1 0.14178,-0.269 c 0.48169,-0.15579 0.97724,-0.31155 1.47315,-0.46753 1.96869,-0.65149 3.92315,-1.28881 5.89215,-1.92611 0.97723,-0.32593 1.95447,-0.63749 2.93207,-0.94907 a 8.76215,8.76215 0 0 1 2.83282,-0.56659 6.40867,6.40867 0 0 1 4.16419,1.95465 c 0.609,0.56659 1.16156,1.16138 1.7138,1.77051 q 0.97723,1.06229 1.95484,2.12463 3.93025,4.29182 7.80407,8.61173 3.88825,4.33428 7.70557,8.68262 0.276,0.31878 0.55225,0.63748 c 1.43064,1.61446 2.83286,3.24352 4.2493,4.87227 z"
     fill="#ffffff"
     id="path49" />
  <path
     d="m 458.07499,269.62228 a 4.78837,4.78837 0 0 0 -2.06268,-1.53281 l -0.8053,0.0283 a 85.05416,85.05416 0 0 0 24.32916,24.75754 q -10.7307,-11.62647 -21.46118,-23.25299 z"
     fill="#ffffff"
     id="path51" />
  <path
     d="M 590.00492,371.85246 557.9171,200.04286 a 12.72616,12.72616 0 0 0 -12.08553,-10.29808 q -0.38925,-0.009 -0.77844,0 l -21.85889,0.78412 -2.35253,0.0865 -10.90929,0.39208 -2.35253,0.0807 -7.01724,0.25371 -141.49775,5.07985 c -0.21331,0.0115 -0.43246,0.0115 -0.64577,0.006 l -31.70725,-0.66308 -11.73382,-0.24216 -0.37481,-0.006 -8.66055,-0.18451 -75.46547,-1.56838 -20.008,-0.42092 -9.86567,-0.20179 -2.364,-0.0519 -11.24949,-0.23067 -2.35826,-0.0519 -11.509,-0.23643 -2.35831,-0.0519 -12.64486,-0.26526 -1.9835,-0.0404 -11.27832,-0.23638 -1.78166,-0.0346 h -0.25945 a 12.69162,12.69162 0 0 0 -12.4661,10.59791 l -29.02032,178.28489 a 12.62409,12.62409 0 0 0 12.46034,14.65716 h 166.66058 a 11.54884,11.54884 0 0 1 6.81544,2.24874 l 3.15975,2.341 a 12.73914,12.73914 0 0 0 7.51309,2.47936 192.43946,192.43946 0 0 1 98.21814,0 12.54838,12.54838 0 0 0 8.93154,-3.70178 11.457,11.457 0 0 1 7.49578,-3.3385 l 165.66885,-8.72973 a 12.62479,12.62479 0 0 0 11.75112,-14.92815 z"
     fill="#cccccc"
     id="path53" />
  <path
     d="m 544.6044,345.06043 a 21.97626,21.97626 0 0 1 -22.75,21.16 c -9.62,-0.34 -21.1,-0.51 -33.56,-0.25 -40.69,0.87 -91.81,6.47 -122.56,26.61 a 21.96635,21.96635 0 0 1 -13.05,3.58 c -0.34,-0.02 -0.67,-0.04 -1.01,-0.07 a 21.928,21.928 0 0 1 -12.84,-5.69 c -16.94,-15.5 -55.79,-34.27 -144.72,-35.59 -0.37,0 -0.73,-0.02 -1.09,-0.04 a 21.96391,21.96391 0 0 1 -20.54,-23.32 l 8.74,-138.71 1.31,-20.79 2.3,-36.37 a 14.44272,14.44272 0 0 1 14.4,-13.53 h 0.09 l 52.98,0.31 q 33.48,1.515 55.46,8.53 a 95.87524,95.87524 0 0 1 14.56,5.86005 55.97512,55.97512 0 0 1 16.94,12.65 19.1189,19.1189 0 0 0 11.5,6.21 18.27586,18.27586 0 0 0 2.08,0.19 19.05655,19.05655 0 0 0 11.53,-3.3 c 34.61,-23.19 105.14,-24.95 144.09,-23.95 a 21.93093,21.93093 0 0 1 21.36005,20.31 l 1.57995,20.69 1.57,20.63 9.06,119.23 2.52,33.17 a 22.80586,22.80586 0 0 1 0.05,2.47995 z"
     fill="#f2f2f2"
     id="path55" />
  <path
     d="m 207.29487,170.86025 c 31.92709,-10.18628 67.54611,-7.4895 97.79251,6.86087 a 128.76776,128.76776 0 0 1 24.30152,14.96765 c 2.1275,1.66974 5.155,-1.317 3.00463,-3.00467 a 139.18738,139.18738 0 0 0 -97.705,-28.65176 133.69712,133.69712 0 0 0 -28.52335,5.73047 c -2.59534,0.828 -1.48608,4.932 1.12961,4.09744 z"
     fill="#3f3d56"
     id="path57" />
  <path
     d="m 382.97874,194.33715 c 29.68384,-15.60223 65.22949,-19.00455 97.50385,-10.14807 a 128.52077,128.52077 0 0 1 26.512,10.5412 c 2.4118,1.28692 4.56079,-2.37985 2.14465,-3.66907 -30.75982,-16.41327 -67.684,-20.19162 -101.27417,-11.04221 a 133.6584,133.6584 0 0 0 -27.031,10.649 c -2.42149,1.27286 -0.27623,4.94161 2.14467,3.66915 z"
     fill="#3f3d56"
     id="path59" />
  <path
     d="m 382.97874,222.66537 c 29.68384,-15.60224 65.22949,-19.00455 97.50385,-10.14807 a 128.51919,128.51919 0 0 1 26.512,10.54123 c 2.4118,1.28692 4.56079,-2.37986 2.14465,-3.6691 -30.75982,-16.41327 -67.684,-20.19162 -101.27417,-11.04221 a 133.65819,133.65819 0 0 0 -27.031,10.649 c -2.42151,1.27276 -0.27625,4.94156 2.14465,3.6691 z"
     fill="#3f3d56"
     id="path61" />
  <path
     d="m 510.17887,249.47393 a 1.82116,1.82116 0 0 0 -1.047,-1.76126 139.3498,139.3498 0 0 0 -80.222,-15.02646 c -0.17334,0.0139 -0.33288,0.0416 -0.52008,0.0555 h -0.007 a 4.25348,4.25348 0 0 0 -0.50622,0.0763 134.22235,134.22235 0 0 0 -47.04175,14.49945 2.14426,2.14426 0 0 0 -1.04706,1.84454 v 52.8457 a 2.14417,2.14417 0 0 0 2.69049,2.03867 c 0.6518,-0.1872 1.30365,-0.36749 1.96936,-0.54086 a 210.61943,210.61943 0 0 1 45.3498,-7.09375 c 0.32592,-0.0139 0.65179,-0.0277 0.99157,-0.0416 a 237.56873,237.56873 0 0 1 37.4101,1.34512 7.80069,7.80069 0 0 1 0.77661,0.0832 c 0.63794,0.0694 1.28973,0.14563 1.92773,0.22886 0.25653,0.0277 0.49927,0.0555 0.735,0.0971 2.48242,0.312 4.94409,0.66565 7.41266,1.04709 q 5.34623,0.8529 10.69256,1.9 c 0.22193,0.0416 0.45075,0.0971 0.67957,0.13871 5.7207,1.13717 11.41376,2.45471 17.079,3.91086 a 2.15291,2.15291 0 0 0 2.69049,-2.0525 v -53.51145 a 0.17566,0.17566 0 0 0 -0.0138,-0.0832 z"
     fill="#3f3d56"
     id="path63" />
  <path
     d="m 432.2411,235.56774 a 6.98814,6.98814 0 0 0 -5.00678,-0.43985 5.93365,5.93365 0 0 0 -3.33483,3.13626 15.08268,15.08268 0 0 0 -1.09772,4.31412 c -0.088,0.58389 -0.0935,1.32065 0.49341,1.59326 a 1.24289,1.24289 0 0 0 1.26123,-0.24972 3.72853,3.72853 0 0 0 0.73846,-1.03034 11.21528,11.21528 0 0 1 9.47388,-5.15079 l 1.56872,0.62531 a 18.58135,18.58135 0 0 0 -4.09637,-2.79825 z"
     fill="#ff6582"
     id="path65" />
  <path
     d="m 449.21965,247.74792 c -1.21741,-1.79224 -2.66,-3.70581 -4.91919,-4.291 -2.61628,-0.6777 -5.3039,0.66858 -7.58362,1.99713 a 221.538,221.538 0 0 0 -19.66638,12.89771 l 0.007,0.0696 14.67536,-0.90082 c 3.5343,-0.21695 7.19006,-0.46381 10.31341,-1.952 a 9.72561,9.72561 0 0 1 3.6836,-1.37164 6.15637,6.15637 0 0 1 4.26684,2.05573 c 6.76331,6.41064 8.72052,16.214 16.30829,21.84622 a 206.08337,206.08337 0 0 0 -17.0852,-30.35091 z"
     fill="#ffffff"
     id="path67" />
  <path
     d="m 430.7913,296.36913 c -0.3396,0.0142 -0.66565,0.0283 -0.99139,0.0425 -2.3653,-0.84982 -4.7873,-1.60055 -7.23767,-2.25222 -1.58655,-0.42484 -3.20111,-0.80728 -4.816,-1.133 -1.82721,-0.39648 -3.66828,-0.70822 -5.50971,-0.97742 a 88.11615,88.11615 0 0 0 -10.58056,-0.89218 0.19234,0.19234 0 1 1 0,-0.38244 c 0.453,0 0.90637,0.0142 1.34552,0.0425 a 88.23556,88.23556 0 0 1 10.59472,1.034 c 1.82721,0.2974 3.65448,0.65149 5.46753,1.04813 1.64289,0.36829 3.28583,0.77908 4.90076,1.23227 q 3.46272,0.97718 6.8268,2.23778 z"
     fill="#ffffff"
     id="path69" />
  <path
     d="m 471.64073,298.12548 c -0.24066,-0.0425 -0.48169,-0.0709 -0.73658,-0.0991 -0.97723,-0.80728 -1.96868,-1.5722 -3.00262,-2.32294 -1.28912,-0.93487 -2.62048,-1.813 -3.98022,-2.63449 a 70.67256,70.67256 0 0 0 -9.40516,-4.78747 93.7826,93.7826 0 0 0 -15.89205,-5.01416 158.13617,158.13617 0 0 0 -18.79547,-2.94608 c -6.3175,-0.65167 -12.663,-1.04812 -19.00848,-1.44476 -0.269,-0.0142 -0.2832,-0.41065 0,-0.39664 0.79327,0.0567 1.58655,0.0991 2.39368,0.15579 6.41638,0.39664 12.83276,0.85 19.2066,1.57236 a 146.42427,146.42427 0 0 1 18.76746,3.25763 91.27949,91.27949 0 0 1 15.38238,5.2832 69.94339,69.94339 0 0 1 8.27161,4.405 c 1.68542,1.06232 3.31451,2.1955 4.87237,3.39945 0.65185,0.50985 1.30331,1.01989 1.92648,1.57217 z"
     fill="#ffffff"
     id="path71" />
  <path
     d="m 468.97801,297.79974 a 7.6982,7.6982 0 0 0 -0.77912,-0.0851 c -0.29736,-0.24069 -0.60931,-0.46734 -0.92053,-0.694 a 64.77218,64.77218 0 0 0 -6.813,-4.26339 72.16328,72.16328 0 0 0 -6.58654,-3.15857 92.52516,92.52516 0 0 0 -15.89209,-5.014 158.11034,158.11034 0 0 0 -18.79584,-2.94608 c -6.31714,-0.65167 -12.66266,-1.04812 -19.00812,-1.44476 -0.269,-0.0283 -0.269,-0.41083 0,-0.39664 0.80743,0.0567 1.6004,0.0991 2.39368,0.1558 6.41638,0.39645 12.83276,0.84982 19.2066,1.5722 a 146.39341,146.39341 0 0 1 18.76746,3.25781 90.80432,90.80432 0 0 1 15.382,5.28317 c 1.86975,0.84983 3.697,1.77051 5.48169,2.77613 a 57.98749,57.98749 0 0 1 7.56381,4.95742 z"
     fill="#ffffff"
     id="path73" />
  <path
     d="m 490.42234,301.21334 c -0.2265,-0.0425 -0.45337,-0.0991 -0.67987,-0.1416 -0.25488,-0.2692 -0.49585,-0.55243 -0.73657,-0.83582 q -1.82685,-2.10333 -3.61194,-4.24923 c -4.68805,-5.58057 -9.1358,-11.3313 -13.32831,-17.1951 q -5.39657,-7.52124 -10.2406,-15.33985 c -1.544,-2.46453 -3.03131,-4.95742 -4.48993,-7.47869 q -1.69986,-2.93175 -3.31451,-5.878 c -0.31158,-0.56658 -0.609,-1.1332 -0.90637,-1.69979 -0.6944,-1.33152 -1.38843,-2.677 -2.12464,-3.99421 a 11.28725,11.28725 0 0 0 -3.428,-4.07928 5.01576,5.01576 0 0 0 -2.43622,-0.83563 7.36581,7.36581 0 0 0 -3.5127,0.90634 114.45093,114.45093 0 0 0 -22.28,13.66843 107.68509,107.68509 0 0 0 -18.1018,17.88928 c -0.1698,0.1983 -0.53839,0.0142 -0.38245,-0.19834 0.63733,-0.79309 1.28882,-1.58639 1.94031,-2.36547 a 108.58208,108.58208 0 0 1 17.12451,-16.27445 c 0.0142,-0.0142 0.0425,-0.0283 0.0567,-0.0424 0.55225,-0.43918 1.10486,-0.864 1.67127,-1.27481 a 115.91722,115.91722 0 0 1 10.935,-7.13876 q 2.88914,-1.67853 5.90632,-3.18692 c 0.49554,-0.25485 1.00561,-0.50989 1.51531,-0.75073 0.51008,-0.25486 1.02015,-0.49555 1.52985,-0.73658 a 8.33823,8.33823 0 0 1 3.24365,-0.89218 c 3.93769,-0.0567 5.963,3.9093 7.3653,6.58618 0.43915,0.83582 0.89252,1.67145 1.33166,2.50708 1.69965,3.15857 3.47016,6.30313 5.31153,9.405 1.11865,1.9263 2.28021,3.83859 3.456,5.73654 1.68543,2.70539 3.41339,5.38227 5.21228,8.04529 a 0.0139,0.0139 0 0 0 0.0136,0.0142 h 5.5e-4 c 2.08209,3.14438 4.24927,6.23206 6.48731,9.30576 q 5.75766,7.88227 12.06787,15.41055 2.16727,2.59191 4.40488,5.11316 z"
     fill="#ffffff"
     id="path75" />
  <path
     d="m 439.8891,238.65777 -0.39178,0.17132 a 10.691,10.691 0 0 0 -8.6363,-5.22851 c -5.79889,-0.41193 -10.89282,3.45257 -11.35589,8.614 a 8.53066,8.53066 0 0 0 1.72436,5.9379 l -0.36371,0.215 a 8.88365,8.88365 0 0 1 -1.79583,-6.18381 c 0.48187,-5.37491 5.787,-9.39942 11.82586,-8.97046 a 11.133,11.133 0 0 1 8.99329,5.44456 z"
     fill="#ff6582"
     id="path77" />
  <path
     d="m 411.23521,249.10052 a 10.45861,10.45861 0 0 0 -9.525,0.60632 150.1542,150.1542 0 0 1 15.45623,3.211 c -2.10842,-1.09982 -3.75771,-2.82298 -5.93123,-3.81732 z"
     fill="#ffffff"
     id="path79" />
  <path
     d="m 401.68095,249.70214 -0.57312,0.41464 c 0.19385,-0.14514 0.39538,-0.28119 0.60242,-0.41 z"
     fill="#ffffff"
     id="path81" />
  <path
     d="m 418.9401,252.10693 c -0.22845,-0.22669 -0.45544,-0.45334 -0.68536,-0.68 a 19.891,19.891 0 0 0 -6.2486,-4.57235 10.00033,10.00033 0 0 0 -3.798,-0.78366 11.985,11.985 0 0 0 -3.94348,0.76553 c -0.59375,0.21112 -1.17438,0.45074 -1.74622,0.70593 -0.65338,0.29273 -1.29516,0.60489 -1.934,0.91965 q -1.79863,0.886 -3.55066,1.84967 -3.486,1.9177 -6.75354,4.12808 -1.6939,1.14633 -3.31787,2.36777 -1.51042,1.13466 -2.95984,2.3302 c -0.2066,0.16968 -0.51513,-0.10492 -0.30853,-0.2746 0.25464,-0.21115 0.51221,-0.421 0.76978,-0.6282 q 1.0914,-0.87818 2.21771,-1.72272 2.05389,-1.5427 4.21423,-2.96619 3.35926,-2.21493 6.95,-4.12936 1.79435,-0.95595 3.638,-1.83154 c 0.3711,-0.17615 0.74659,-0.34845 1.12635,-0.51163 a 19.2827,19.2827 0 0 1 2.67755,-0.97019 10.64414,10.64414 0 0 1 4.044,-0.3536 11.41873,11.41873 0 0 1 3.73114,1.14892 24.482,24.482 0 0 1 6.186,4.93244 c 0.18616,0.18646 -0.12097,0.46237 -0.30866,0.27585 z"
     fill="#ffffff"
     id="path83" />
  <path
     d="m 207.29487,199.1885 c 31.92709,-10.18628 67.54611,-7.4895 97.79251,6.86084 a 128.76673,128.76673 0 0 1 24.30152,14.96765 c 2.1275,1.66974 5.155,-1.317 3.00463,-3.00467 a 139.18733,139.18733 0 0 0 -97.705,-28.65176 133.69712,133.69712 0 0 0 -28.52335,5.73047 c -2.59534,0.828 -1.48608,4.932 1.12961,4.09744 z"
     fill="#3f3d56"
     id="path85" />
  <path
     d="m 207.29487,227.51672 c 31.92709,-10.18628 67.54611,-7.48951 97.79251,6.86084 a 128.76673,128.76673 0 0 1 24.30152,14.96765 c 2.1275,1.66974 5.155,-1.317 3.00463,-3.00467 a 139.18738,139.18738 0 0 0 -97.705,-28.65177 133.69835,133.69835 0 0 0 -28.52335,5.73047 c -2.59534,0.828 -1.48608,4.932 1.12961,4.09745 z"
     fill="#3f3d56"
     id="path87" />
  <path
     d="m 207.29487,255.84493 c 31.92709,-10.18628 67.54611,-7.4895 97.79251,6.86084 a 128.76776,128.76776 0 0 1 24.30152,14.96765 c 2.1275,1.66974 5.155,-1.317 3.00463,-3.00467 a 139.18738,139.18738 0 0 0 -97.705,-28.65176 133.69712,133.69712 0 0 0 -28.52335,5.73047 c -2.59534,0.828 -1.48608,4.932 1.12961,4.09744 z"
     fill="#3f3d56"
     id="path89" />
  <path
     d="m 207.29487,284.17318 c 31.92709,-10.18628 67.54611,-7.4895 97.79251,6.86084 a 128.76673,128.76673 0 0 1 24.30152,14.96765 c 2.1275,1.66974 5.155,-1.317 3.00463,-3.00467 a 139.18733,139.18733 0 0 0 -97.705,-28.65176 133.69712,133.69712 0 0 0 -28.52335,5.73047 c -2.59534,0.828 -1.48608,4.932 1.12961,4.09744 z"
     fill="#3f3d56"
     id="path91" />
  <path
     d="m 207.29487,312.5014 c 31.92709,-10.18628 67.54611,-7.48951 97.79251,6.86084 a 128.76532,128.76532 0 0 1 24.30152,14.96768 c 2.1275,1.66974 5.155,-1.317 3.00463,-3.00467 a 139.18738,139.18738 0 0 0 -97.705,-28.65177 133.69835,133.69835 0 0 0 -28.52335,5.73047 c -2.59534,0.828 -1.48608,4.932 1.12961,4.09745 z"
     fill="#3f3d56"
     id="path93" />
  <path
     d="m 322.32444,136.75043 v 67.93 c 0,1.35 -2.36005,2.48 -5.54,2.79 a 0.21977,0.21977 0 0 0 -0.08,0.01 c -0.53,0.04 -1.09,0.07 -1.66,0.07 a 14.57029,14.57029 0 0 1 -5.15,-0.84 c -0.15,-0.06 -0.3,-0.13 -0.45,-0.19 -0.14,-0.08 -0.29,-0.15 -0.43,-0.23 -0.79,-0.47 -1.25,-1.02 -1.25,-1.61 v -73.79 a 95.87524,95.87524 0 0 1 14.56,5.86 z"
     fill="#ff0000"
     id="path95" />
  <rect
     x="350.76224"
     y="152.50577"
     width="2.08026"
     height="242.23463"
     fill="#e6e6e6"
     id="rect97" />
</svg>
