<?xml version="1.0" encoding="UTF-8" standalone="no"?>
<svg
   data-name="Layer 1"
   width="695.96166"
   height="624.8455"
   viewBox="0 0 695.96166 624.8455"
   version="1.1"
   id="svg56"
   sodipodi:docname="buildings_institutions.svg"
   inkscape:version="1.1.2 (1:1.1+202202050950+0a00cf5339)"
   xmlns:inkscape="http://www.inkscape.org/namespaces/inkscape"
   xmlns:sodipodi="http://sodipodi.sourceforge.net/DTD/sodipodi-0.dtd"
   xmlns:xlink="http://www.w3.org/1999/xlink"
   xmlns="http://www.w3.org/2000/svg"
   xmlns:svg="http://www.w3.org/2000/svg"
   xmlns:rdf="http://www.w3.org/1999/02/22-rdf-syntax-ns#"
   xmlns:cc="http://creativecommons.org/ns#"
   xmlns:dc="http://purl.org/dc/elements/1.1/">
  <metadata
     id="metadata62">
    <rdf:RDF>
      <cc:Work
         rdf:about="">
        <dc:format>image/svg+xml</dc:format>
        <dc:type
           rdf:resource="http://purl.org/dc/dcmitype/StillImage" />
        <dc:title />
      </cc:Work>
    </rdf:RDF>
  </metadata>
  <defs
     id="defs60">
    <inkscape:perspective
       sodipodi:type="inkscape:persp3d"
       inkscape:vp_x="0 : 312.42275 : 1"
       inkscape:vp_y="0 : 1000 : 0"
       inkscape:vp_z="695.96166 : 312.42275 : 1"
       inkscape:persp3d-origin="347.98083 : 208.28183 : 1"
       id="perspective64" />
    <linearGradient
       id="d4a136ba-2c16-48ed-b5ab-c1493b7a7acb-86"
       x1="34.299999"
       y1="165.89999"
       x2="34.299999"
       y2="134.78999"
       xlink:href="#3e3b4f84-8398-4e97-bfa9-93b2936006f5-79" />
    <linearGradient
       id="3e3b4f84-8398-4e97-bfa9-93b2936006f5-79"
       x1="369.42001"
       y1="281.20001"
       x2="369.42001"
       y2="129.23"
       gradientUnits="userSpaceOnUse">
      <stop
         offset="0"
         stop-color="gray"
         stop-opacity="0.25"
         id="stop2" />
      <stop
         offset="0.54"
         stop-color="gray"
         stop-opacity="0.12"
         id="stop4" />
      <stop
         offset="1"
         stop-color="gray"
         stop-opacity="0.1"
         id="stop6" />
    </linearGradient>
    <linearGradient
       id="ef61be1e-18fe-4bcb-9275-2f988f2bf512-87"
       x1="65.620003"
       y1="281.17001"
       x2="65.620003"
       y2="163.34"
       xlink:href="#3e3b4f84-8398-4e97-bfa9-93b2936006f5-79" />
    <linearGradient
       id="1512db09-687e-46a3-b6f1-2462e94a71e8-88"
       x1="66.779999"
       y1="174.28999"
       x2="66.779999"
       y2="125.51"
       xlink:href="#3e3b4f84-8398-4e97-bfa9-93b2936006f5-79" />
  </defs>
  <sodipodi:namedview
     pagecolor="#ffffff"
     bordercolor="#666666"
     borderopacity="1"
     objecttolerance="10"
     gridtolerance="10"
     guidetolerance="10"
     inkscape:pageopacity="0"
     inkscape:pageshadow="2"
     inkscape:window-width="1366"
     inkscape:window-height="705"
     id="namedview58"
     showgrid="false"
     inkscape:zoom="0.62057034"
     inkscape:cx="90.239569"
     inkscape:cy="308.5871"
     inkscape:window-x="0"
     inkscape:window-y="27"
     inkscape:window-maximized="1"
     inkscape:current-layer="svg56"
     inkscape:pagecheckerboard="0" />
  <path
     d="m 160.3269,240.41766 h 68.97688 L 263.79225,180.68192 229.30381,120.9462 H 160.3269 l -34.48844,59.73572 z"
     fill="#f2f2f2"
     id="path8" />
  <path
     d="m 304.28454,154.38001 h 68.97688 l 34.48847,-59.735744 -34.48844,-59.73572 h -68.97691 l -34.48844,59.73572 z"
     fill="#f2f2f2"
     id="path10" />
  <path
     d="m 382.00452,174.52364 h -86.46313 a 5.01407,5.01407 0 0 1 -4.3302,-2.5 L 247.97962,97.143756 a 5.01476,5.01476 0 0 1 0,-5 l 43.23169,-74.87891 a 5.01373,5.01373 0 0 1 4.33008,-2.5 h 86.46329 a 5.01355,5.01355 0 0 1 4.33007,2.5 l 43.23157,74.87891 a 5.01354,5.01354 0 0 1 0,5 L 386.3346,172.02364 a 5.01326,5.01326 0 0 1 -4.33008,2.5 z M 295.54139,16.764886 a 3.00833,3.00833 0 0 0 -2.59814,1.5 l -43.23157,74.87891 a 3.00865,3.00865 0 0 0 1.2e-4,3 l 43.23145,74.879844 a 3.00833,3.00833 0 0 0 2.59814,1.5 h 86.46313 a 3.00785,3.00785 0 0 0 2.598,-1.5 l 43.23181,-74.879884 a 3.00836,3.00836 0 0 0 0,-3 l -43.23181,-74.87891 a 3.00779,3.00779 0 0 0 -2.5979,-1.5 z"
     fill="#cccccc"
     id="path12" />
  <path
     d="m 238.04688,261.60137 h -86.46313 a 5.01407,5.01407 0 0 1 -4.3302,-2.5 l -43.23157,-74.87988 a 5.01476,5.01476 0 0 1 0,-5 l 43.23169,-74.87891 a 5.01373,5.01373 0 0 1 4.33008,-2.5 h 86.46329 a 5.01355,5.01355 0 0 1 4.33007,2.5 l 43.23157,74.87891 a 5.01354,5.01354 0 0 1 0,5 l -43.23169,74.87988 a 5.01326,5.01326 0 0 1 -4.33011,2.5 z M 151.58375,103.84258 a 3.00833,3.00833 0 0 0 -2.59814,1.5 l -43.23157,74.87891 a 3.00865,3.00865 0 0 0 1.2e-4,3 l 43.23145,74.87988 a 3.00833,3.00833 0 0 0 2.59814,1.5 h 86.46313 a 3.00785,3.00785 0 0 0 2.598,-1.5 l 43.23181,-74.87988 a 3.00836,3.00836 0 0 0 0,-3 l -43.23181,-74.87891 a 3.00779,3.00779 0 0 0 -2.5979,-1.5 z"
     fill="#cccccc"
     id="path14" />
  <path
     d="m 338.70946,71.672436 a 18.00482,18.00482 0 1 0 -26.06028,24.85067 q 0.29517,0.30953 0.6048,0.60481 l 26.0677,26.067724 25.45546,-25.455484 a 18.43787,18.43787 0 0 0 -26.06773,-26.06772 z"
     fill="#ff0000"
     id="path20" />
  <path
     style="fill:#ff0000;fill-opacity:1;stroke:none;stroke-width:0.599228px;stroke-linecap:butt;stroke-linejoin:miter;stroke-opacity:1"
     d="m 161.18334,148.87928 33.93543,7.92929 34.68954,-7.20844 1.50824,69.92192 -36.19778,-5.04591 -33.93543,5.76675 z"
     id="path80"
     sodipodi:nodetypes="ccccccc" />
  <path
     style="fill:none;stroke:#ffffff;stroke-width:1.37823;stroke-linecap:butt;stroke-linejoin:miter;stroke-miterlimit:4;stroke-dasharray:none;stroke-opacity:1"
     d="m 195.11877,156.80857 v 57.66757 0"
     id="path82"
     sodipodi:nodetypes="ccc" />
  <path
     d="m 163.60702,408.13133 h 68.97688 l 34.48847,-59.73574 -34.48844,-59.73572 h -68.97691 l -34.48844,59.73572 z"
     fill="#f2f2f2"
     id="path8-7" />
  <path
     d="m 241.327,429.31504 h -86.46313 a 5.01407,5.01407 0 0 1 -4.3302,-2.5 L 107.3021,351.93516 a 5.01476,5.01476 0 0 1 0,-5 l 43.23169,-74.87891 a 5.01373,5.01373 0 0 1 4.33008,-2.5 h 86.46329 a 5.01355,5.01355 0 0 1 4.33007,2.5 l 43.23157,74.87891 a 5.01354,5.01354 0 0 1 0,5 l -43.23169,74.87988 a 5.01326,5.01326 0 0 1 -4.33011,2.5 z M 154.86387,271.55625 a 3.00833,3.00833 0 0 0 -2.59814,1.5 l -43.23157,74.87891 a 3.00865,3.00865 0 0 0 1.2e-4,3 l 43.23145,74.87988 a 3.00833,3.00833 0 0 0 2.59814,1.5 H 241.327 a 3.00785,3.00785 0 0 0 2.598,-1.5 l 43.23181,-74.87988 a 3.00836,3.00836 0 0 0 0,-3 L 243.925,273.05625 a 3.00779,3.00779 0 0 0 -2.5979,-1.5 z"
     fill="#cccccc"
     id="path14-9" />
  <path
     style="fill:#ff0000;fill-opacity:1;stroke:#ff0000;stroke-width:6.81068;stroke-linecap:butt;stroke-linejoin:miter;stroke-miterlimit:4;stroke-dasharray:none;stroke-opacity:1"
     d="m 176.86218,317.52069 -1.02877,62.7984"
     id="path907" />
  <path
     style="fill:#ff0000;fill-opacity:1;stroke:#ff0000;stroke-width:6.81068;stroke-linecap:butt;stroke-linejoin:miter;stroke-miterlimit:4;stroke-dasharray:none;stroke-opacity:1"
     d="m 188.69304,317.5621 -1.02877,62.7984"
     id="path907-0" />
  <path
     style="fill:#ff0000;fill-opacity:1;stroke:#ff0000;stroke-width:6.81068;stroke-linecap:butt;stroke-linejoin:miter;stroke-miterlimit:4;stroke-dasharray:none;stroke-opacity:1"
     d="m 200.78499,317.7679 -1.02877,62.79841"
     id="path907-1" />
  <path
     style="fill:#ff0000;fill-opacity:1;stroke:#ff0000;stroke-width:6.81068;stroke-linecap:butt;stroke-linejoin:miter;stroke-miterlimit:4;stroke-dasharray:none;stroke-opacity:1"
     d="m 213.11585,317.7872 -1.02878,62.7984"
     id="path907-14" />
  <path
     style="fill:#ff0000;fill-opacity:1;stroke:#ff0000;stroke-width:6.81068;stroke-linecap:butt;stroke-linejoin:miter;stroke-miterlimit:4;stroke-dasharray:none;stroke-opacity:1"
     d="m 225.11878,317.54586 -1.02877,62.79841"
     id="path907-4" />
  <path
     d="m 452.75273,408.13133 h 68.97688 l 34.48847,-59.73574 -34.48844,-59.73572 h -68.97691 l -34.48844,59.73572 z"
     fill="#f2f2f2"
     id="path8-1" />
  <path
     d="m 531.70312,429.31504 h -86.46313 a 5.01407,5.01407 0 0 1 -4.3302,-2.5 l -43.23157,-74.87988 a 5.01476,5.01476 0 0 1 0,-5 l 43.23169,-74.87891 a 5.01373,5.01373 0 0 1 4.33008,-2.5 h 86.46329 a 5.01355,5.01355 0 0 1 4.33007,2.5 l 43.23157,74.87891 a 5.01354,5.01354 0 0 1 0,5 l -43.23169,74.87988 a 5.01326,5.01326 0 0 1 -4.33011,2.5 z M 445.23999,271.55625 a 3.00833,3.00833 0 0 0 -2.59814,1.5 l -43.23157,74.87891 a 3.00865,3.00865 0 0 0 1.2e-4,3 l 43.23145,74.87988 a 3.00833,3.00833 0 0 0 2.59814,1.5 h 86.46313 a 3.00785,3.00785 0 0 0 2.598,-1.5 l 43.23181,-74.87988 a 3.00836,3.00836 0 0 0 0,-3 l -43.23181,-74.87891 a 3.00779,3.00779 0 0 0 -2.5979,-1.5 z"
     fill="#cccccc"
     id="path14-90" />
  <rect
     style="fill:#ff0000;fill-opacity:1;stroke:#ff0000;stroke-width:6.9462;stroke-miterlimit:4;stroke-dasharray:none;stroke-opacity:1"
     id="rect988"
     width="54.132809"
     height="43.044285"
     x="461.40524"
     y="334.83948"
     ry="1.4842858" />
  <ellipse
     style="fill:#ffffff;fill-opacity:1;stroke:#ffffff;stroke-width:3.62016;stroke-miterlimit:4;stroke-dasharray:none;stroke-opacity:1"
     id="path990"
     cx="489.03568"
     cy="351.72253"
     rx="9.0954351"
     ry="5.5788407" />
  <ellipse
     style="fill:#ffffff;fill-opacity:1;stroke:#ffffff;stroke-width:2.45096;stroke-miterlimit:4;stroke-dasharray:none;stroke-opacity:1"
     id="path992"
     cx="489.03568"
     cy="360.55029"
     rx="2.2299364"
     ry="11.011389" />
  <ellipse
     style="fill:none;fill-opacity:1;stroke:#ff0002;stroke-width:5.28911;stroke-miterlimit:4;stroke-dasharray:none;stroke-opacity:1"
     id="path994"
     cx="487.90768"
     cy="350.17563"
     rx="22.558002"
     ry="28.701059" />
  <path
     d="M 451.52232,238.33514 H 520.4992 L 554.98767,178.5994 520.49923,118.86368 H 451.52232 L 417.03388,178.5994 Z"
     fill="#f2f2f2"
     id="path8-5" />
  <path
     d="m 529.2423,259.51885 h -86.46313 a 5.01407,5.01407 0 0 1 -4.3302,-2.5 L 395.2174,182.13897 a 5.01476,5.01476 0 0 1 0,-5 l 43.23169,-74.87891 a 5.01373,5.01373 0 0 1 4.33008,-2.5 h 86.46329 a 5.01355,5.01355 0 0 1 4.33007,2.5 l 43.23157,74.87891 a 5.01354,5.01354 0 0 1 0,5 l -43.23169,74.87988 a 5.01326,5.01326 0 0 1 -4.33011,2.5 z M 442.77917,101.76006 a 3.00833,3.00833 0 0 0 -2.59814,1.5 l -43.23157,74.87891 a 3.00865,3.00865 0 0 0 1.2e-4,3 l 43.23145,74.87988 a 3.00833,3.00833 0 0 0 2.59814,1.5 h 86.46313 a 3.00785,3.00785 0 0 0 2.598,-1.5 l 43.23181,-74.87988 a 3.00836,3.00836 0 0 0 0,-3 L 531.8403,103.26006 a 3.00779,3.00779 0 0 0 -2.5979,-1.5 z"
     fill="#cccccc"
     id="path14-1" />
  <path
     style="fill:#ff0000;fill-opacity:1;stroke:none;stroke-width:0.386109px;stroke-linecap:butt;stroke-linejoin:miter;stroke-opacity:1"
     d="m 512.96774,184.89041 c 7.95368,34.92008 -49.52113,41.35514 -47.70718,4.7589 0.55009,-11.09795 24.13626,-50.91733 24.13626,-50.91733 0,0 19.76498,29.44874 23.57092,46.15843 z"
     id="path1024"
     sodipodi:nodetypes="sscs" />
  <g
     opacity="0.7"
     id="g118"
     transform="matrix(1.6553112,0,0,1.4788023,236.26778,186.7454)">
    <rect
       x="26.42"
       y="134.78999"
       width="15.77"
       height="31.110001"
       fill="url(#d4a136ba-2c16-48ed-b5ab-c1493b7a7acb-86)"
       id="rect116"
       style="fill:url(#d4a136ba-2c16-48ed-b5ab-c1493b7a7acb-86)" />
  </g>
  <rect
     x="280.71289"
     y="386.70905"
     width="24.680689"
     height="45.369656"
     fill="#535461"
     id="rect120"
     style="stroke-width:1.56457" />
  <g
     opacity="0.7"
     id="g124"
     transform="matrix(1.6553112,0,0,1.4788023,236.26778,186.7454)">
    <polygon
       points="17.9,164.41 66.04,163.34 113.35,164.41 113.35,281.17 17.9,281.17 "
       fill="url(#ef61be1e-18fe-4bcb-9275-2f988f2bf512-87)"
       id="polygon122"
       style="fill:url(#ef61be1e-18fe-4bcb-9275-2f988f2bf512-87)" />
  </g>
  <polygon
     points="65.84,131.38 112.29,164.41 112.29,281.17 19.39,281.17 19.39,164.41 "
     fill="#ffffff"
     id="polygon126"
     transform="matrix(1.6553112,0,0,1.4788023,238.02241,186.7454)" />
  <rect
     x="325.85321"
     y="544.55646"
     width="38.800495"
     height="57.969051"
     fill="#535461"
     id="rect128"
     style="stroke-width:1.56457" />
  <rect
     x="309.63113"
     y="455.70996"
     width="71.244598"
     height="39.705845"
     fill="#ff0000"
     opacity="0.5"
     id="rect130"
     style="stroke-width:1.56457" />
  <rect
     x="305.39355"
     y="491.94061"
     width="79.703239"
     height="6.9355831"
     fill="#535461"
     id="rect132"
     style="stroke-width:1.56457" />
  <g
     opacity="0.1"
     id="g136"
     transform="matrix(1.6553112,0,0,1.4788023,236.26778,186.7454)">
    <rect
       x="44.32"
       y="181.88"
       width="43.040001"
       height="10.65"
       id="rect134" />
  </g>
  <g
     opacity="0.7"
     id="g140"
     transform="matrix(1.6553112,0,0,1.4788023,236.26778,186.7454)">
    <polygon
       points="122.44,169.23 118.53,174.29 65.97,133.64 15.1,174.26 11.11,169.26 65.91,125.51 "
       fill="url(#1512db09-687e-46a3-b6f1-2462e94a71e8-88)"
       id="polygon138"
       style="fill:url(#1512db09-687e-46a3-b6f1-2462e94a71e8-88)" />
  </g>
  <polygon
     points="122.44,169.66 118.53,174.71 65.97,134.06 15.1,174.68 11.11,169.69 65.91,125.93 "
     fill="#ff0000"
     id="polygon142"
     transform="matrix(1.6553112,0,0,1.4788023,236.26778,186.7454)" />
  <circle
     cx="359.00909"
     cy="573.5556"
     fill="#e0e0e0"
     id="circle144"
     rx="2.814029"
     ry="2.5139639"
     style="stroke-width:1.56457" />
</svg>
